<svg width="14" height="18" viewBox="0 0 14 18" fill="none" xmlns="http://www.w3.org/2000/svg">
<g clip-path="url(#clip0_1_1176)">
<g clip-path="url(#clip1_1_1176)">
<path d="M11.2043 9.44648C11.1973 8.15625 11.7809 7.18242 12.9621 6.46523C12.3012 5.51953 11.3027 4.99922 9.98438 4.89727C8.73633 4.79883 7.37227 5.625 6.87305 5.625C6.3457 5.625 5.13633 4.93242 4.18711 4.93242C2.22539 4.96406 0.140625 6.49688 0.140625 9.61523C0.140625 10.5363 0.309375 11.4879 0.646875 12.4699C1.09688 13.7602 2.72109 16.9242 4.41563 16.8715C5.30156 16.8504 5.92734 16.2422 7.08047 16.2422C8.19844 16.2422 8.77851 16.8715 9.76641 16.8715C11.475 16.8469 12.9445 13.9711 13.3734 12.6773C11.0813 11.598 11.2043 9.51328 11.2043 9.44648ZM9.21445 3.67383C10.1742 2.53477 10.0863 1.49766 10.0582 1.125C9.21094 1.17422 8.23008 1.70156 7.67109 2.35195C7.05586 3.04805 6.69375 3.90938 6.77109 4.87969C7.68867 4.95 8.52539 4.47891 9.21445 3.67383Z" fill="#1F2937"/>
</g>
</g>
<defs>
<clipPath id="clip0_1_1176">
<rect width="13.5" height="18" fill="white"/>
</clipPath>
<clipPath id="clip1_1_1176">
<path d="M0 0H13.5V18H0V0Z" fill="white"/>
</clipPath>
</defs>
</svg>
