<svg width="18" height="18" viewBox="0 0 18 18" fill="none" xmlns="http://www.w3.org/2000/svg">
<g clip-path="url(#clip0_1_1171)">
<g clip-path="url(#clip1_1_1171)">
<path d="M17.1562 9.20391C17.1562 14.1785 13.7496 17.7188 8.71875 17.7188C3.89531 17.7188 0 13.8234 0 9C0 4.17656 3.89531 0.28125 8.71875 0.28125C11.0672 0.28125 13.043 1.14258 14.5652 2.56289L12.1922 4.84453C9.08789 1.84922 3.31523 4.09922 3.31523 9C3.31523 12.041 5.74453 14.5055 8.71875 14.5055C12.1711 14.5055 13.4648 12.0305 13.6687 10.7473H8.71875V7.74844H17.0191C17.1 8.19492 17.1562 8.62383 17.1562 9.20391Z" fill="#1F2937"/>
</g>
</g>
<defs>
<clipPath id="clip0_1_1171">
<rect width="17.1562" height="18" fill="white"/>
</clipPath>
<clipPath id="clip1_1_1171">
<path d="M0 0H17.1562V18H0V0Z" fill="white"/>
</clipPath>
</defs>
</svg>
