<svg width="22" height="14" viewBox="0 0 22 14" fill="none" xmlns="http://www.w3.org/2000/svg">
<g clip-path="url(#clip0_1_465)">
<path d="M11.5011 12.9971C17.3001 12.9971 22 10.0884 22 6.49855C22 2.90873 17.3001 0 11.5011 0C5.70204 0 1.00213 2.90873 1.00213 6.49855C1.00213 7.90761 1.72803 9.21044 2.95838 10.2758C2.88046 11.0413 2.49085 11.7224 2.08073 12.241C1.85517 12.5285 1.6255 12.7597 1.45736 12.9159C1.37123 12.994 1.30562 13.0533 1.2564 13.094C1.23179 13.1127 1.21539 13.1283 1.20309 13.1377L1.19078 13.1471C1.00213 13.2908 0.948816 13.5032 1.05134 13.6907C1.15387 13.8782 1.39174 14 1.65831 14C2.83534 14 4.02057 13.7219 5.00485 13.397C5.94401 13.0846 6.74374 12.7128 7.23177 12.441C8.53594 12.8003 9.97954 13.0002 11.5011 13.0002V12.9971ZM6.2516 5.49877C6.59966 5.49877 6.93347 5.60411 7.17958 5.7916C7.4257 5.9791 7.56397 6.23339 7.56397 6.49855C7.56397 6.76371 7.4257 7.018 7.17958 7.2055C6.93347 7.39299 6.59966 7.49833 6.2516 7.49833C5.90354 7.49833 5.56973 7.39299 5.32362 7.2055C5.0775 7.018 4.93923 6.76371 4.93923 6.49855C4.93923 6.23339 5.0775 5.9791 5.32362 5.7916C5.56973 5.60411 5.90354 5.49877 6.2516 5.49877ZM11.5011 5.49877C11.8491 5.49877 12.1829 5.60411 12.429 5.7916C12.6752 5.9791 12.8134 6.23339 12.8134 6.49855C12.8134 6.76371 12.6752 7.018 12.429 7.2055C12.1829 7.39299 11.8491 7.49833 11.5011 7.49833C11.153 7.49833 10.8192 7.39299 10.5731 7.2055C10.327 7.018 10.1887 6.76371 10.1887 6.49855C10.1887 6.23339 10.327 5.9791 10.5731 5.7916C10.8192 5.60411 11.153 5.49877 11.5011 5.49877ZM15.4382 6.49855C15.4382 6.23339 15.5764 5.9791 15.8226 5.7916C16.0687 5.60411 16.4025 5.49877 16.7505 5.49877C17.0986 5.49877 17.4324 5.60411 17.6785 5.7916C17.9246 5.9791 18.0629 6.23339 18.0629 6.49855C18.0629 6.76371 17.9246 7.018 17.6785 7.2055C17.4324 7.39299 17.0986 7.49833 16.7505 7.49833C16.4025 7.49833 16.0687 7.39299 15.8226 7.2055C15.5764 7.018 15.4382 6.76371 15.4382 6.49855Z" fill="#9CA3AF"/>
</g>
<defs>
<clipPath id="clip0_1_465">
<rect width="22" height="14" fill="white"/>
</clipPath>
</defs>
</svg>
