<svg width="23" height="36" viewBox="0 0 23 36" fill="none" xmlns="http://www.w3.org/2000/svg">
<path d="M11.2558 3.37516C11.2558 2.48002 11.6114 1.62153 12.2444 0.988563C12.8774 0.355597 13.7358 0 14.631 0C15.5261 0 16.3846 0.355597 17.0176 0.988563C17.6506 1.62153 18.0062 2.48002 18.0062 3.37516C18.0062 4.27031 17.6506 5.1288 17.0176 5.76177C16.3846 6.39473 15.5261 6.75033 14.631 6.75033C13.7358 6.75033 12.8774 6.39473 12.2444 5.76177C11.6114 5.1288 11.2558 4.27031 11.2558 3.37516ZM8.90024 14.014C8.82992 14.0421 8.76664 14.0702 8.69632 14.0983L8.13379 14.3444C6.98061 14.8578 6.09463 15.8351 5.69383 17.0305L5.51101 17.579C5.11724 18.7603 3.84452 19.3931 2.66322 18.9994C1.48191 18.6056 0.849065 17.3329 1.24283 16.1516L1.42566 15.6031C2.22726 13.2053 3.99922 11.2505 6.30558 10.2239L6.86811 9.97783C8.33068 9.33092 9.91279 8.99341 11.516 8.99341C14.6521 8.99341 17.4788 10.8779 18.6812 13.7679L19.764 16.3625L21.2688 17.1149C22.3798 17.6704 22.8298 19.0205 22.2743 20.1314C21.7188 21.2424 20.3688 21.6925 19.2578 21.137L17.3733 20.2018C16.6491 19.8361 16.0795 19.2314 15.7701 18.479L15.0951 16.8618L13.738 21.4675L17.2186 25.2645C17.5983 25.6794 17.8655 26.1786 18.0062 26.7271L19.6234 33.2032C19.9258 34.4056 19.1945 35.6291 17.9851 35.9314C16.7756 36.2338 15.5592 35.5025 15.2568 34.2931L13.7098 28.0982L8.73851 22.6769C7.69784 21.5448 7.3111 19.9627 7.70487 18.479L8.89321 14.014H8.90024ZM4.83598 27.9857L6.59388 23.598C6.74154 23.809 6.9103 24.0059 7.08609 24.2027L9.94795 27.3248L8.92837 29.8702C8.75961 30.2921 8.50647 30.6788 8.18302 31.0023L3.84452 35.3408C2.96557 36.2197 1.53816 36.2197 0.659212 35.3408C-0.219737 34.4618 -0.219737 33.0344 0.659212 32.1555L4.83598 27.9857Z" fill="white"/>
</svg>
