<svg width="18" height="14" viewBox="0 0 18 14" fill="none" xmlns="http://www.w3.org/2000/svg">
<path d="M5.6878 9.625C8.8296 9.625 11.3753 7.47031 11.3753 4.8125C11.3753 2.15469 8.8296 0 5.6878 0C2.546 0 0.000299262 2.15469 0.000299262 4.8125C0.000299262 5.86797 0.402252 6.84414 1.08311 7.63984C0.987409 7.89687 0.845221 8.12383 0.69483 8.31523C0.56358 8.48477 0.429596 8.61602 0.331159 8.70625C0.28194 8.75 0.240924 8.78555 0.213581 8.80742C0.199909 8.81836 0.188971 8.82656 0.183502 8.8293L0.178034 8.83477C0.027643 8.94688 -0.037982 9.14375 0.0221743 9.32148C0.0823305 9.49922 0.249127 9.625 0.437799 9.625C1.03389 9.625 1.63546 9.47188 2.13585 9.2832C2.38741 9.1875 2.62256 9.08086 2.82764 8.97148C3.6671 9.38711 4.64327 9.625 5.6878 9.625ZM12.2503 4.8125C12.2503 7.8832 9.54053 10.1965 6.33038 10.4727C6.99483 12.507 9.19874 14 11.8128 14C12.8573 14 13.8335 13.7621 14.6757 13.3465C14.8808 13.4559 15.1132 13.5625 15.3648 13.6582C15.8651 13.8469 16.4667 14 17.0628 14C17.2515 14 17.421 13.877 17.4784 13.6965C17.5358 13.516 17.473 13.3191 17.3198 13.207L17.3144 13.2016C17.3089 13.1961 17.298 13.1906 17.2843 13.1797C17.2569 13.1578 17.2159 13.125 17.1667 13.0785C17.0683 12.9883 16.9343 12.857 16.803 12.6875C16.6526 12.4961 16.5105 12.2664 16.4148 12.0121C17.0956 11.2191 17.4976 10.243 17.4976 9.18477C17.4976 6.64727 15.1761 4.56641 12.2312 4.38594C12.2421 4.52539 12.2476 4.66758 12.2476 4.80977L12.2503 4.8125Z" fill="white"/>
</svg>
