<svg width="10" height="24" viewBox="0 0 10 24" fill="none" xmlns="http://www.w3.org/2000/svg">
<path d="M10 24H0V0H10V24Z" stroke="#E5E7EB"/>
<g clip-path="url(#clip0_1_361)">
<path d="M4.9999 4.5C4.9999 4.10218 5.15794 3.72064 5.43924 3.43934C5.72055 3.15804 6.10208 3 6.4999 3C6.89773 3 7.27926 3.15804 7.56056 3.43934C7.84187 3.72064 7.9999 4.10218 7.9999 4.5C7.9999 4.89782 7.84187 5.27936 7.56056 5.56066C7.27926 5.84196 6.89773 6 6.4999 6C6.10208 6 5.72055 5.84196 5.43924 5.56066C5.15794 5.27936 4.9999 4.89782 4.9999 4.5ZM3.95303 9.22813C3.92178 9.24062 3.89365 9.25313 3.8624 9.26562L3.6124 9.375C3.0999 9.60313 2.70615 10.0375 2.52803 10.5687L2.44678 10.8125C2.27178 11.3375 1.70615 11.6188 1.18115 11.4438C0.656152 11.2688 0.374902 10.7031 0.549902 10.1781L0.631152 9.93437C0.987402 8.86875 1.7749 8 2.7999 7.54375L3.0499 7.43437C3.6999 7.14687 4.40303 6.99688 5.11553 6.99688C6.50928 6.99688 7.76553 7.83438 8.2999 9.11875L8.78115 10.2719L9.4499 10.6062C9.94365 10.8531 10.1437 11.4531 9.89678 11.9469C9.6499 12.4406 9.0499 12.6406 8.55615 12.3938L7.71865 11.9781C7.39678 11.8156 7.14365 11.5469 7.00615 11.2125L6.70615 10.4938L6.10303 12.5406L7.6499 14.2281C7.81865 14.4125 7.9374 14.6344 7.9999 14.8781L8.71865 17.7563C8.85303 18.2906 8.52803 18.8344 7.99053 18.9688C7.45303 19.1031 6.9124 18.7781 6.77803 18.2406L6.09053 15.4875L3.88115 13.0781C3.41865 12.575 3.24678 11.8719 3.42178 11.2125L3.9499 9.22813H3.95303ZM2.14678 15.4375L2.92803 13.4875C2.99365 13.5813 3.06865 13.6688 3.14678 13.7563L4.41865 15.1438L3.96553 16.275C3.89053 16.4625 3.77803 16.6344 3.63428 16.7781L1.70615 18.7063C1.31553 19.0969 0.681152 19.0969 0.290527 18.7063C-0.100098 18.3156 -0.100098 17.6812 0.290527 17.2906L2.14678 15.4375Z" fill="white"/>
</g>
<defs>
<clipPath id="clip0_1_361">
<path d="M0 3H10V19H0V3Z" fill="white"/>
</clipPath>
</defs>
</svg>
