<svg width="16" height="23" viewBox="0 0 16 23" fill="none" xmlns="http://www.w3.org/2000/svg">
<path d="M16 23H0V0H16V23Z" stroke="#E5E7EB"/>
<path d="M16 19H0V3H16V19Z" stroke="#E5E7EB"/>
<path d="M4.65938 5.025L4.33437 6H2C0.896875 6 0 6.89687 0 8V16C0 17.1031 0.896875 18 2 18H14C15.1031 18 16 17.1031 16 16V8C16 6.89687 15.1031 6 14 6H11.6656L11.3406 5.025C11.1375 4.4125 10.5656 4 9.91875 4H6.08125C5.43438 4 4.8625 4.4125 4.65938 5.025ZM8 9C8.79565 9 9.55871 9.31607 10.1213 9.87868C10.6839 10.4413 11 11.2044 11 12C11 12.7956 10.6839 13.5587 10.1213 14.1213C9.55871 14.6839 8.79565 15 8 15C7.20435 15 6.44129 14.6839 5.87868 14.1213C5.31607 13.5587 5 12.7956 5 12C5 11.2044 5.31607 10.4413 5.87868 9.87868C6.44129 9.31607 7.20435 9 8 9Z" fill="white"/>
</svg>
