<svg width="20" height="40" viewBox="0 0 20 40" fill="none" xmlns="http://www.w3.org/2000/svg">
<path d="M20 40H0V0H20V40Z" stroke="#E5E7EB"/>
<g clip-path="url(#clip0_1_993)">
<path d="M12 28H8V12H12V28Z" stroke="#E5E7EB"/>
<path d="M10 23.25C9.53587 23.25 9.09075 23.4344 8.76256 23.7626C8.43437 24.0908 8.25 24.5359 8.25 25C8.25 25.4641 8.43437 25.9092 8.76256 26.2374C9.09075 26.5656 9.53587 26.75 10 26.75C10.4641 26.75 10.9092 26.5656 11.2374 26.2374C11.5656 25.9092 11.75 25.4641 11.75 25C11.75 24.5359 11.5656 24.0908 11.2374 23.7626C10.9092 23.4344 10.4641 23.25 10 23.25ZM10 18.25C9.53587 18.25 9.09075 18.4344 8.76256 18.7626C8.43437 19.0908 8.25 19.5359 8.25 20C8.25 20.4641 8.43437 20.9092 8.76256 21.2374C9.09075 21.5656 9.53587 21.75 10 21.75C10.4641 21.75 10.9092 21.5656 11.2374 21.2374C11.5656 20.9092 11.75 20.4641 11.75 20C11.75 19.5359 11.5656 19.0908 11.2374 18.7626C10.9092 18.4344 10.4641 18.25 10 18.25ZM11.75 15C11.75 14.5359 11.5656 14.0908 11.2374 13.7626C10.9092 13.4344 10.4641 13.25 10 13.25C9.53587 13.25 9.09075 13.4344 8.76256 13.7626C8.43437 14.0908 8.25 14.5359 8.25 15C8.25 15.4641 8.43437 15.9092 8.76256 16.2374C9.09075 16.5656 9.53587 16.75 10 16.75C10.4641 16.75 10.9092 16.5656 11.2374 16.2374C11.5656 15.9092 11.75 15.4641 11.75 15Z" fill="#4B5563"/>
</g>
<defs>
<clipPath id="clip0_1_993">
<rect width="4" height="16" fill="white" transform="translate(8 12)"/>
</clipPath>
</defs>
</svg>
