<svg width="28" height="50" viewBox="0 0 28 50" fill="none" xmlns="http://www.w3.org/2000/svg">
<path d="M28 50H0V0H28V50Z" stroke="#E5E7EB"/>
<g clip-path="url(#clip0_1_1123)">
<path d="M28 32H12V16H28V32Z" stroke="#E5E7EB"/>
<path d="M14 19.5C13.725 19.5 13.5 19.725 13.5 20V20.6906L18.8906 25.1156C19.5375 25.6469 20.4656 25.6469 21.1125 25.1156L26.5 20.6906V20C26.5 19.725 26.275 19.5 26 19.5H14ZM13.5 22.6312V28C13.5 28.275 13.725 28.5 14 28.5H26C26.275 28.5 26.5 28.275 26.5 28V22.6312L22.0625 26.275C20.8625 27.2594 19.1344 27.2594 17.9375 26.275L13.5 22.6312ZM12 20C12 18.8969 12.8969 18 14 18H26C27.1031 18 28 18.8969 28 20V28C28 29.1031 27.1031 30 26 30H14C12.8969 30 12 29.1031 12 28V20Z" fill="#9CA3AF"/>
</g>
<defs>
<clipPath id="clip0_1_1123">
<rect width="16" height="16" fill="white" transform="translate(12 16)"/>
</clipPath>
</defs>
</svg>
