<svg width="18" height="24" viewBox="0 0 18 24" fill="none" xmlns="http://www.w3.org/2000/svg">
<path d="M18 24H0V0H18V24Z" stroke="#E5E7EB"/>
<path d="M18 23H0V0H18V23Z" stroke="#E5E7EB"/>
<path d="M18 19H0V3H18V19Z" stroke="#E5E7EB"/>
<path d="M2 4C0.896875 4 0 4.89688 0 6V7H18V6C18 4.89688 17.1031 4 16 4H2ZM18 10H0V16C0 17.1031 0.896875 18 2 18H16C17.1031 18 18 17.1031 18 16V10ZM3.5 14H5.5C5.775 14 6 14.225 6 14.5C6 14.775 5.775 15 5.5 15H3.5C3.225 15 3 14.775 3 14.5C3 14.225 3.225 14 3.5 14ZM7 14.5C7 14.225 7.225 14 7.5 14H11.5C11.775 14 12 14.225 12 14.5C12 14.775 11.775 15 11.5 15H7.5C7.225 15 7 14.775 7 14.5Z" fill="#9CA3AF"/>
</svg>
