<svg width="11" height="12" viewBox="0 0 11 12" fill="none" xmlns="http://www.w3.org/2000/svg">
<g clip-path="url(#clip0_1_910)">
<g clip-path="url(#clip1_1_910)">
<path d="M8.02949 2.02968C8.32246 1.73671 8.32246 1.26093 8.02949 0.967957C7.73652 0.674988 7.26074 0.674988 6.96777 0.967957L3.7498 4.18827L2.40449 2.84296C2.11152 2.54999 1.63574 2.54999 1.34277 2.84296C1.0498 3.13593 1.0498 3.61171 1.34277 3.90468L3.21777 5.77968C3.51074 6.07264 3.98652 6.07264 4.27949 5.77968L8.02949 2.02968ZM10.2795 5.02968C10.5725 4.73671 10.5725 4.26093 10.2795 3.96796C9.98652 3.67499 9.51074 3.67499 9.21777 3.96796L3.7498 9.43827L1.27949 6.9703C0.986523 6.67733 0.510742 6.67733 0.217773 6.9703C-0.0751953 7.26327 -0.0751953 7.73905 0.217773 8.03202L3.21777 11.032C3.51074 11.325 3.98652 11.325 4.27949 11.032L10.2795 5.03202V5.02968Z" fill="#4CAF50"/>
</g>
</g>
<defs>
<clipPath id="clip0_1_910">
<rect width="10.5" height="12" fill="white"/>
</clipPath>
<clipPath id="clip1_1_910">
<path d="M0 0H10.5V12H0V0Z" fill="white"/>
</clipPath>
</defs>
</svg>
