<svg width="13" height="20" viewBox="0 0 13 20" fill="none" xmlns="http://www.w3.org/2000/svg">
<path d="M12.25 20H0V0H12.25V20Z" stroke="#E5E7EB"/>
<g clip-path="url(#clip0_1_344)">
<path d="M8.75 4.0625C8.75 3.7144 8.61172 3.38056 8.36558 3.13442C8.11944 2.88828 7.7856 2.75 7.4375 2.75C7.0894 2.75 6.75556 2.88828 6.50942 3.13442C6.26328 3.38056 6.125 3.7144 6.125 4.0625C6.125 4.4106 6.26328 4.74444 6.50942 4.99058C6.75556 5.23672 7.0894 5.375 7.4375 5.375C7.7856 5.375 8.11944 5.23672 8.36558 4.99058C8.61172 4.74444 8.75 4.4106 8.75 4.0625ZM3.43711 7.54883C3.70781 7.27812 4.07695 7.125 4.4625 7.125C4.51445 7.125 4.56641 7.12773 4.61562 7.1332L3.7625 9.69531C3.5082 10.4609 3.80898 11.3031 4.49531 11.7324L6.85234 13.2063L6.15781 15.6344C6.02383 16.0992 6.29453 16.5832 6.75938 16.7172C7.22422 16.8512 7.7082 16.5805 7.84219 16.1156L8.62695 13.3703C8.78828 12.807 8.55586 12.2055 8.06094 11.8965L6.50781 10.9258L7.35273 8.67266L7.49219 9.00898C7.90234 9.98789 8.85664 10.625 9.91758 10.625H10.5C10.984 10.625 11.375 10.234 11.375 9.75C11.375 9.26602 10.984 8.875 10.5 8.875H9.91758C9.56484 8.875 9.24492 8.66172 9.11094 8.33633L8.93867 7.92617C8.53945 6.96641 7.73281 6.23359 6.7375 5.92734L5.40586 5.51719C5.10234 5.42422 4.78516 5.375 4.46523 5.375C3.61758 5.375 2.80273 5.71133 2.20391 6.31289L1.56953 6.94453C1.22773 7.28633 1.22773 7.84141 1.56953 8.1832C1.91133 8.525 2.46641 8.525 2.8082 8.1832L3.43984 7.55156L3.43711 7.54883ZM2.49375 12.375H0.875C0.391016 12.375 0 12.766 0 13.25C0 13.734 0.391016 14.125 0.875 14.125H2.77813C3.29766 14.125 3.76797 13.8188 3.97852 13.3457L4.29297 12.6375L4.0332 12.4734C3.55469 12.1754 3.19922 11.7406 2.99688 11.2457L2.49375 12.375Z" fill="#374151"/>
</g>
<defs>
<clipPath id="clip0_1_344">
<path d="M0 2.75H12.25V16.75H0V2.75Z" fill="white"/>
</clipPath>
</defs>
</svg>
