<svg width="16" height="24" viewBox="0 0 16 24" fill="none" xmlns="http://www.w3.org/2000/svg">
<path d="M16 24H0V0H16V24Z" stroke="#E5E7EB"/>
<path d="M16 23H0V0H16V23Z" stroke="#E5E7EB"/>
<g clip-path="url(#clip0_1_2045)">
<path d="M8 19C10.1217 19 12.1566 18.1571 13.6569 16.6569C15.1571 15.1566 16 13.1217 16 11C16 8.87827 15.1571 6.84344 13.6569 5.34315C12.1566 3.84285 10.1217 3 8 3C5.87827 3 3.84344 3.84285 2.34315 5.34315C0.842855 6.84344 0 8.87827 0 11C0 13.1217 0.842855 15.1566 2.34315 16.6569C3.84344 18.1571 5.87827 19 8 19ZM5.30625 8.16563C5.55312 7.46875 6.21563 7 6.95625 7H8.77812C9.86875 7 10.75 7.88438 10.75 8.97188C10.75 9.67813 10.3719 10.3312 9.75937 10.6844L8.75 11.2625C8.74375 11.6687 8.40938 12 8 12C7.58437 12 7.25 11.6656 7.25 11.25V10.8281C7.25 10.5594 7.39375 10.3125 7.62813 10.1781L9.0125 9.38438C9.15938 9.3 9.25 9.14375 9.25 8.975C9.25 8.7125 9.0375 8.50313 8.77812 8.50313H6.95625C6.85 8.50313 6.75625 8.56875 6.72188 8.66875L6.70937 8.70625C6.57188 9.09688 6.14062 9.3 5.75313 9.1625C5.36563 9.025 5.15938 8.59375 5.29688 8.20625L5.30937 8.16875L5.30625 8.16563ZM7 14C7 13.7348 7.10536 13.4804 7.29289 13.2929C7.48043 13.1054 7.73478 13 8 13C8.26522 13 8.51957 13.1054 8.70711 13.2929C8.89464 13.4804 9 13.7348 9 14C9 14.2652 8.89464 14.5196 8.70711 14.7071C8.51957 14.8946 8.26522 15 8 15C7.73478 15 7.48043 14.8946 7.29289 14.7071C7.10536 14.5196 7 14.2652 7 14Z" fill="#9CA3AF"/>
</g>
<defs>
<clipPath id="clip0_1_2045">
<path d="M0 3H16V19H0V3Z" fill="white"/>
</clipPath>
</defs>
</svg>
