<svg width="15" height="12" viewBox="0 0 15 12" fill="none" xmlns="http://www.w3.org/2000/svg">
<g clip-path="url(#clip0_1_661)">
<g clip-path="url(#clip1_1_661)">
<path d="M3.375 0C3.87228 0 4.34919 0.197544 4.70083 0.549175C5.05246 0.900805 5.25 1.37772 5.25 1.875C5.25 2.37228 5.05246 2.84919 4.70083 3.20083C4.34919 3.55246 3.87228 3.75 3.375 3.75C2.87772 3.75 2.40081 3.55246 2.04917 3.20083C1.69754 2.84919 1.5 2.37228 1.5 1.875C1.5 1.37772 1.69754 0.900805 2.04917 0.549175C2.40081 0.197544 2.87772 0 3.375 0ZM12 0C12.4973 0 12.9742 0.197544 13.3258 0.549175C13.6775 0.900805 13.875 1.37772 13.875 1.875C13.875 2.37228 13.6775 2.84919 13.3258 3.20083C12.9742 3.55246 12.4973 3.75 12 3.75C11.5027 3.75 11.0258 3.55246 10.6742 3.20083C10.3225 2.84919 10.125 2.37228 10.125 1.875C10.125 1.37772 10.3225 0.900805 10.6742 0.549175C11.0258 0.197544 11.5027 0 12 0ZM0 7.00078C0 5.62031 1.12031 4.5 2.50078 4.5H3.50156C3.87422 4.5 4.22813 4.58203 4.54688 4.72734C4.51641 4.89609 4.50234 5.07188 4.50234 5.25C4.50234 6.14531 4.89609 6.94922 5.51719 7.5C5.5125 7.5 5.50781 7.5 5.50078 7.5H0.499219C0.225 7.5 0 7.275 0 7.00078ZM9.49922 7.5C9.49453 7.5 9.48984 7.5 9.48281 7.5C10.1062 6.94922 10.4977 6.14531 10.4977 5.25C10.4977 5.07188 10.4812 4.89844 10.4531 4.72734C10.7719 4.57969 11.1258 4.5 11.4984 4.5H12.4992C13.8797 4.5 15 5.62031 15 7.00078C15 7.27734 14.775 7.5 14.5008 7.5H9.49922ZM5.25 5.25C5.25 4.65326 5.48705 4.08097 5.90901 3.65901C6.33097 3.23705 6.90326 3 7.5 3C8.09674 3 8.66903 3.23705 9.09099 3.65901C9.51295 4.08097 9.75 4.65326 9.75 5.25C9.75 5.84674 9.51295 6.41903 9.09099 6.84099C8.66903 7.26295 8.09674 7.5 7.5 7.5C6.90326 7.5 6.33097 7.26295 5.90901 6.84099C5.48705 6.41903 5.25 5.84674 5.25 5.25ZM3 11.3742C3 9.64922 4.39922 8.25 6.12422 8.25H8.87578C10.6008 8.25 12 9.64922 12 11.3742C12 11.7188 11.7211 12 11.3742 12H3.62578C3.28125 12 3 11.7211 3 11.3742Z" fill="#6B7280"/>
</g>
</g>
<defs>
<clipPath id="clip0_1_661">
<rect width="15" height="12" fill="white"/>
</clipPath>
<clipPath id="clip1_1_661">
<path d="M0 0H15V12H0V0Z" fill="white"/>
</clipPath>
</defs>
</svg>
