<svg width="20" height="24" viewBox="0 0 20 24" fill="none" xmlns="http://www.w3.org/2000/svg">
<path d="M20 24H0V0H20V24Z" stroke="#E5E7EB"/>
<g clip-path="url(#clip0_1_531)">
<path d="M13 4C11.0094 4 8 5 8 5V9C9.5 9 10.375 9.5 11.25 10C12.125 10.5 13 11 14.5 11C16.2625 11 20 10.5 20 8C20 5.5 16 4 13 4ZM4 7C4 8.10313 4.89687 9 6 9H7V5H6C4.89687 5 4 5.89688 4 7ZM9 20C12 20 16 18.5 16 16C16 13.5 12.2625 13 10.5 13C9 13 8.125 13.5 7.25 14C6.375 14.5 5.5 15 4 15V19C4 19 7.00938 20 9 20ZM0 17C0 18.1031 0.896875 19 2 19H3V15H2C0.896875 15 0 15.8969 0 17Z" fill="#4CAF50"/>
</g>
<defs>
<clipPath id="clip0_1_531">
<path d="M0 4H20V20H0V4Z" fill="white"/>
</clipPath>
</defs>
</svg>
