<svg width="24" height="32" viewBox="0 0 24 32" fill="none" xmlns="http://www.w3.org/2000/svg">
<path d="M24 32H0V0H24V32Z" stroke="#E5E7EB"/>
<g clip-path="url(#clip0_1_1311)">
<path d="M2.23125 17.0813L10.7016 24.9891C11.0531 25.3172 11.5172 25.5 12 25.5C12.4828 25.5 12.9469 25.3172 13.2984 24.9891L21.7687 17.0813C23.1938 15.7547 24 13.8938 24 11.9484V11.6766C24 8.40001 21.6328 5.60626 18.4031 5.06719C16.2656 4.71094 14.0906 5.40938 12.5625 6.93751L12 7.50001L11.4375 6.93751C9.90938 5.40938 7.73438 4.71094 5.59688 5.06719C2.36719 5.60626 0 8.40001 0 11.6766V11.9484C0 13.8938 0.80625 15.7547 2.23125 17.0813Z" fill="white"/>
</g>
<defs>
<clipPath id="clip0_1_1311">
<path d="M0 3H24V27H0V3Z" fill="white"/>
</clipPath>
</defs>
</svg>
