<svg width="16" height="24" viewBox="0 0 16 24" fill="none" xmlns="http://www.w3.org/2000/svg">
<path d="M16 24H0V0H16V24Z" stroke="#E5E7EB"/>
<g clip-path="url(#clip0_1_554)">
<path d="M7.11562 4.36563C7.60313 3.87813 8.39375 3.87813 8.88437 4.36563L15.6344 11.1156C16.1219 11.6031 16.1219 12.3937 15.6344 12.8844L8.88437 19.6344C8.39687 20.1219 7.60625 20.1219 7.11562 19.6344L0.365625 12.8844C-0.121875 12.3969 -0.121875 11.6062 0.365625 11.1156L7.11562 4.36563ZM9.85312 8.64687C9.70937 8.50312 9.49375 8.4625 9.30937 8.5375C9.125 8.6125 9 8.79688 9 9V10.75H7C5.89687 10.75 5 11.6469 5 12.75V14.25C5 14.6656 5.33437 15 5.75 15C6.16563 15 6.5 14.6656 6.5 14.25V12.75C6.5 12.475 6.725 12.25 7 12.25H9V14C9 14.2031 9.12187 14.3844 9.30937 14.4625C9.49687 14.5406 9.7125 14.4969 9.85312 14.3531L12.3531 11.8531C12.5469 11.6594 12.5469 11.3406 12.3531 11.1469L9.85312 8.64687Z" fill="#4CAF50"/>
</g>
<defs>
<clipPath id="clip0_1_554">
<path d="M0 4H16V20H0V4Z" fill="white"/>
</clipPath>
</defs>
</svg>
