<svg width="20" height="14" viewBox="0 0 20 14" fill="none" xmlns="http://www.w3.org/2000/svg">
<path d="M1.69356 5.34062C3.84981 3.27187 6.77481 2 9.99981 2C13.2248 2 16.1498 3.27187 18.3061 5.34062C18.7061 5.72187 19.3373 5.70937 19.7186 5.3125C20.0998 4.91563 20.0873 4.28125 19.6904 3.9C17.1779 1.48438 13.7623 0 9.99981 0C6.23731 0 2.82168 1.48438 0.306058 3.89687C-0.0908168 4.28125 -0.103317 4.9125 0.277933 5.3125C0.659183 5.7125 1.29356 5.725 1.69043 5.34062H1.69356ZM9.99981 7C11.7748 7 13.3936 7.65938 14.6311 8.75C15.0467 9.11563 15.6779 9.075 16.0436 8.6625C16.4092 8.25 16.3686 7.61562 15.9561 7.25C14.3686 5.85 12.2811 5 9.99981 5C7.71856 5 5.63106 5.85 4.04668 7.25C3.63106 7.61562 3.59356 8.24688 3.95918 8.6625C4.32481 9.07812 4.95606 9.11563 5.37168 8.75C6.60606 7.65938 8.22481 7 10.0029 7H9.99981ZM11.9998 12C11.9998 11.4696 11.7891 10.9609 11.414 10.5858C11.0389 10.2107 10.5302 10 9.99981 10C9.46938 10 8.96067 10.2107 8.5856 10.5858C8.21052 10.9609 7.99981 11.4696 7.99981 12C7.99981 12.5304 8.21052 13.0391 8.5856 13.4142C8.96067 13.7893 9.46938 14 9.99981 14C10.5302 14 11.0389 13.7893 11.414 13.4142C11.7891 13.0391 11.9998 12.5304 11.9998 12Z" fill="#1F2937"/>
</svg>
