<svg width="19" height="30" viewBox="0 0 19 30" fill="none" xmlns="http://www.w3.org/2000/svg">
<g clip-path="url(#clip0_1_1088)">
<g clip-path="url(#clip1_1_1088)">
<path d="M9.375 2.8125C9.375 2.06658 9.67132 1.35121 10.1988 0.823762C10.7262 0.296316 11.4416 0 12.1875 0C12.9334 0 13.6488 0.296316 14.1762 0.823762C14.7037 1.35121 15 2.06658 15 2.8125C15 3.55842 14.7037 4.27379 14.1762 4.80124C13.6488 5.32868 12.9334 5.625 12.1875 5.625C11.4416 5.625 10.7262 5.32868 10.1988 4.80124C9.67132 4.27379 9.375 3.55842 9.375 2.8125ZM7.41211 11.6777C7.35352 11.7012 7.30078 11.7246 7.24219 11.748L6.77344 11.9531C5.8125 12.3809 5.07422 13.1953 4.74023 14.1914L4.58789 14.6484C4.25977 15.6328 3.19922 16.1602 2.21484 15.832C1.23047 15.5039 0.703125 14.4434 1.03125 13.459L1.18359 13.002C1.85156 11.0039 3.32812 9.375 5.25 8.51953L5.71875 8.31445C6.9375 7.77539 8.25586 7.49414 9.5918 7.49414C12.2051 7.49414 14.5605 9.06445 15.5625 11.4727L16.4648 13.6348L17.7188 14.2617C18.6445 14.7246 19.0195 15.8496 18.5566 16.7754C18.0938 17.7012 16.9688 18.0762 16.043 17.6133L14.4727 16.834C13.8691 16.5293 13.3945 16.0254 13.1367 15.3984L12.5742 14.0508L11.4434 17.8887L14.3438 21.0527C14.6602 21.3984 14.8828 21.8145 15 22.2715L16.3477 27.668C16.5996 28.6699 15.9902 29.6895 14.9824 29.9414C13.9746 30.1934 12.9609 29.584 12.709 28.5762L11.4199 23.4141L7.27734 18.8965C6.41016 17.9531 6.08789 16.6348 6.41602 15.3984L7.40625 11.6777H7.41211ZM4.02539 23.3203L5.49023 19.6641C5.61328 19.8398 5.75391 20.0039 5.90039 20.168L8.28516 22.7695L7.43555 24.8906C7.29492 25.2422 7.08398 25.5645 6.81445 25.834L3.19922 29.4492C2.4668 30.1816 1.27734 30.1816 0.544922 29.4492C-0.1875 28.7168 -0.1875 27.5273 0.544922 26.7949L4.02539 23.3203Z" fill="#4CAF50"/>
</g>
</g>
<defs>
<clipPath id="clip0_1_1088">
<rect width="18.75" height="30" fill="white"/>
</clipPath>
<clipPath id="clip1_1_1088">
<path d="M0 0H18.75V30H0V0Z" fill="white"/>
</clipPath>
</defs>
</svg>
