<svg width="12" height="24" viewBox="0 0 12 24" fill="none" xmlns="http://www.w3.org/2000/svg">
<path d="M12 24H0V0H12V24Z" stroke="#E5E7EB"/>
<g clip-path="url(#clip0_1_442)">
<path d="M6.00019 4.5C6.00019 4.10218 6.15822 3.72064 6.43953 3.43934C6.72083 3.15804 7.10236 3 7.50019 3C7.89801 3 8.27954 3.15804 8.56085 3.43934C8.84215 3.72064 9.00019 4.10218 9.00019 4.5C9.00019 4.89782 8.84215 5.27936 8.56085 5.56066C8.27954 5.84196 7.89801 6 7.50019 6C7.10236 6 6.72083 5.84196 6.43953 5.56066C6.15822 5.27936 6.00019 4.89782 6.00019 4.5ZM7.60331 10.2094L7.00644 12.5938L8.55956 14.1469C8.84081 14.4281 9.00019 14.8094 9.00019 15.2063V18C9.00019 18.5531 8.55331 19 8.00019 19C7.44706 19 7.00019 18.5531 7.00019 18V15.4156L4.69081 13.1062C4.19706 12.6125 3.99706 11.9 4.16269 11.2219L4.80019 8.59688C5.05956 7.53125 6.13456 6.88125 7.19706 7.14687C7.79081 7.29688 8.30956 7.65937 8.64706 8.16875L9.53456 9.5H10.5002V8.75C10.5002 8.33437 10.8346 8 11.2502 8C11.6658 8 12.0002 8.33437 12.0002 8.75V10.4938C12.0002 10.4969 12.0002 10.5 12.0002 10.5V10.5062V18.25C12.0002 18.6656 11.6658 19 11.2502 19C10.8346 19 10.5002 18.6656 10.5002 18.25V11.5H9.26894C8.76894 11.5 8.30019 11.25 8.02206 10.8313L7.60644 10.2063L7.60331 10.2094ZM2.53456 17.7469L3.66581 13.4375C3.75956 13.5688 3.86581 13.6937 3.98144 13.8094L5.29081 15.1187L4.46581 18.2531C4.32519 18.7875 3.77831 19.1063 3.24394 18.9656C2.70956 18.825 2.39081 18.2781 2.53144 17.7437L2.53456 17.7469ZM4.26894 6.93438L3.16894 11.3281C3.07519 11.7063 2.70331 11.95 2.31894 11.8875L0.822061 11.6375C0.384561 11.5656 0.106436 11.1281 0.222061 10.7L0.997061 7.84375C1.29394 6.75625 2.28144 6 3.40956 6H3.54081C4.02831 6 4.38769 6.45938 4.26894 6.93125V6.93438Z" fill="white"/>
</g>
<defs>
<clipPath id="clip0_1_442">
<path d="M0 3H12V19H0V3Z" fill="white"/>
</clipPath>
</defs>
</svg>
