<svg width="14" height="24" viewBox="0 0 14 24" fill="none" xmlns="http://www.w3.org/2000/svg">
<path d="M14 24H0V0H14V24Z" stroke="#E5E7EB"/>
<g clip-path="url(#clip0_1_504)">
<path d="M4 4C4.55312 4 5 4.44687 5 5V6H9V5C9 4.44687 9.44687 4 10 4C10.5531 4 11 4.44687 11 5V6H12.5C13.3281 6 14 6.67188 14 7.5V9H0V7.5C0 6.67188 0.671875 6 1.5 6H3V5C3 4.44687 3.44688 4 4 4ZM0 10H14V18.5C14 19.3281 13.3281 20 12.5 20H1.5C0.671875 20 0 19.3281 0 18.5V10ZM2.5 12C2.225 12 2 12.225 2 12.5V15.5C2 15.775 2.225 16 2.5 16H5.5C5.775 16 6 15.775 6 15.5V12.5C6 12.225 5.775 12 5.5 12H2.5Z" fill="#4CAF50"/>
</g>
<defs>
<clipPath id="clip0_1_504">
<path d="M0 4H14V20H0V4Z" fill="white"/>
</clipPath>
</defs>
</svg>
