<svg width="16" height="24" viewBox="0 0 16 24" fill="none" xmlns="http://www.w3.org/2000/svg">
<path d="M16 24H0V0H16V24Z" stroke="#E5E7EB"/>
<g clip-path="url(#clip0_1_487)">
<path d="M8.00016 18C12.4189 18 16.0002 15.0906 16.0002 11.5C16.0002 7.90937 12.4189 5 8.00016 5C3.58141 5 0.000158712 7.90937 0.000158712 11.5C0.000158712 12.9094 0.553284 14.2125 1.49078 15.2781C1.43141 16.0437 1.13453 16.725 0.822034 17.2437C0.650159 17.5312 0.475159 17.7625 0.347034 17.9187C0.281409 17.9969 0.231409 18.0563 0.193909 18.0969C0.175159 18.1156 0.162659 18.1313 0.153284 18.1406L0.143909 18.15C0.000158712 18.2937 -0.0404663 18.5063 0.0376587 18.6938C0.115784 18.8813 0.297034 19.0031 0.500159 19.0031C1.39703 19.0031 2.30016 18.725 3.05016 18.4C3.76578 18.0875 4.37516 17.7156 4.74703 17.4438C5.74078 17.8031 6.84078 18.0031 8.00016 18.0031V18ZM4.00016 10.5C4.26538 10.5 4.51973 10.6054 4.70727 10.7929C4.8948 10.9804 5.00016 11.2348 5.00016 11.5C5.00016 11.7652 4.8948 12.0196 4.70727 12.2071C4.51973 12.3946 4.26538 12.5 4.00016 12.5C3.73494 12.5 3.48059 12.3946 3.29305 12.2071C3.10552 12.0196 3.00016 11.7652 3.00016 11.5C3.00016 11.2348 3.10552 10.9804 3.29305 10.7929C3.48059 10.6054 3.73494 10.5 4.00016 10.5ZM8.00016 10.5C8.26538 10.5 8.51973 10.6054 8.70726 10.7929C8.8948 10.9804 9.00016 11.2348 9.00016 11.5C9.00016 11.7652 8.8948 12.0196 8.70726 12.2071C8.51973 12.3946 8.26538 12.5 8.00016 12.5C7.73494 12.5 7.48059 12.3946 7.29305 12.2071C7.10552 12.0196 7.00016 11.7652 7.00016 11.5C7.00016 11.2348 7.10552 10.9804 7.29305 10.7929C7.48059 10.6054 7.73494 10.5 8.00016 10.5ZM11.0002 11.5C11.0002 11.2348 11.1055 10.9804 11.2931 10.7929C11.4806 10.6054 11.7349 10.5 12.0002 10.5C12.2654 10.5 12.5197 10.6054 12.7073 10.7929C12.8948 10.9804 13.0002 11.2348 13.0002 11.5C13.0002 11.7652 12.8948 12.0196 12.7073 12.2071C12.5197 12.3946 12.2654 12.5 12.0002 12.5C11.7349 12.5 11.4806 12.3946 11.2931 12.2071C11.1055 12.0196 11.0002 11.7652 11.0002 11.5Z" fill="#374151"/>
</g>
<defs>
<clipPath id="clip0_1_487">
<path d="M0 4H16V20H0V4Z" fill="white"/>
</clipPath>
</defs>
</svg>
