<svg width="20" height="14" viewBox="0 0 20 14" fill="none" xmlns="http://www.w3.org/2000/svg">
<path d="M9.75 0C9.33438 0 9 0.334375 9 0.75C9 1.16562 9.33438 1.5 9.75 1.5H10.5531L11.6344 3.5H6.96562L6.10938 2.3125C5.96875 2.11562 5.74062 2 5.5 2H3.75C3.33437 2 3 2.33437 3 2.75C3 3.16563 3.33437 3.5 3.75 3.5H5.11562L5.80625 4.45937L4.975 6.11875C4.6625 6.04063 4.33437 6 4 6C1.79063 6 0 7.79063 0 10C0 12.2094 1.79063 14 4 14C6.04063 14 7.72188 12.4719 7.96875 10.5H9.5C9.76562 10.5 10.0094 10.3594 10.1469 10.1313L12.7969 5.64687L13.475 6.9C12.575 7.63438 12 8.75 12 10C12 12.2094 13.7906 14 16 14C18.2094 14 20 12.2094 20 10C20 7.79063 18.2094 6 16 6C15.5781 6 15.1719 6.06563 14.7906 6.1875L11.7312 0.525C11.5562 0.2 11.2188 0 10.85 0H9.75ZM14.3313 8.49063L15.3406 10.3562C15.5375 10.7219 15.9938 10.8562 16.3563 10.6594C16.7188 10.4625 16.8562 10.0063 16.6594 9.64375L15.65 7.77812C15.7625 7.75937 15.8813 7.75 16 7.75C17.2437 7.75 18.25 8.75625 18.25 10C18.25 11.2437 17.2437 12.25 16 12.25C14.7563 12.25 13.75 11.2437 13.75 10C13.75 9.41875 13.9688 8.89062 14.3313 8.49063ZM4.1625 10.5H6.19375C5.96562 11.5031 5.06875 12.25 4 12.25C2.75625 12.25 1.75 11.2437 1.75 10C1.75 8.75625 2.75625 7.75 4 7.75C4.05312 7.75 4.10625 7.75313 4.15938 7.75625L3.40313 9.27188C3.12188 9.8375 3.53125 10.5031 4.1625 10.5031V10.5ZM5.21562 9L6.8 5.83437L9.07812 8.99687L9.075 9H5.2125H5.21562ZM8.04688 5H11.4344L9.90625 7.5875L8.04375 5H8.04688Z" fill="#2563EB"/>
</svg>
