<svg width="9" height="12" viewBox="0 0 9 12" fill="none" xmlns="http://www.w3.org/2000/svg">
<g clip-path="url(#clip0_1_666)">
<g clip-path="url(#clip1_1_666)">
<path d="M5.05547 11.7C6.25781 10.1953 9 6.54844 9 4.5C9 2.01562 6.98438 0 4.5 0C2.01562 0 0 2.01562 0 4.5C0 6.54844 2.74219 10.1953 3.94453 11.7C4.23281 12.0586 4.76719 12.0586 5.05547 11.7ZM4.5 3C4.89782 3 5.27936 3.15804 5.56066 3.43934C5.84196 3.72064 6 4.10218 6 4.5C6 4.89782 5.84196 5.27936 5.56066 5.56066C5.27936 5.84196 4.89782 6 4.5 6C4.10218 6 3.72064 5.84196 3.43934 5.56066C3.15804 5.27936 3 4.89782 3 4.5C3 4.10218 3.15804 3.72064 3.43934 3.43934C3.72064 3.15804 4.10218 3 4.5 3Z" fill="#6B7280"/>
</g>
</g>
<defs>
<clipPath id="clip0_1_666">
<rect width="9" height="12" fill="white"/>
</clipPath>
<clipPath id="clip1_1_666">
<path d="M0 0H9V12H0V0Z" fill="white"/>
</clipPath>
</defs>
</svg>
