<svg width="14" height="24" viewBox="0 0 14 24" fill="none" xmlns="http://www.w3.org/2000/svg">
<path d="M14 24H0V0H14V24Z" stroke="#E5E7EB"/>
<g clip-path="url(#clip0_1_513)">
<path d="M5.5 4C4.94688 4 4.5 4.44687 4.5 5C4.5 5.55313 4.94688 6 5.5 6H6V7.075C2.88438 7.55625 0.5 10.25 0.5 13.5C0.5 17.0906 3.40937 20 7 20C10.5906 20 13.5 17.0906 13.5 13.5C13.5 12.1938 13.1156 10.9781 12.4531 9.9625L13.2063 9.20937C13.5969 8.81875 13.5969 8.18437 13.2063 7.79375C12.8156 7.40313 12.1812 7.40313 11.7906 7.79375L11.1156 8.46875C10.2375 7.75 9.17188 7.25625 8 7.075V6H8.5C9.05313 6 9.5 5.55313 9.5 5C9.5 4.44687 9.05313 4 8.5 4H7H5.5ZM7.75 10V14C7.75 14.4156 7.41563 14.75 7 14.75C6.58437 14.75 6.25 14.4156 6.25 14V10C6.25 9.58437 6.58437 9.25 7 9.25C7.41563 9.25 7.75 9.58437 7.75 10Z" fill="#4CAF50"/>
</g>
<defs>
<clipPath id="clip0_1_513">
<path d="M0 4H14V20H0V4Z" fill="white"/>
</clipPath>
</defs>
</svg>
