<svg width="30" height="36" viewBox="0 0 30 36" fill="none" xmlns="http://www.w3.org/2000/svg">
<path d="M30 36H0V0H30V36Z" stroke="#E5E7EB"/>
<g clip-path="url(#clip0_1_944)">
<path d="M26.25 7.4375C26.7656 7.4375 27.1875 7.85938 27.1875 8.375V27.1133L26.8945 26.7324L18.9258 16.4199C18.6621 16.0742 18.2461 15.875 17.8125 15.875C17.3789 15.875 16.9688 16.0742 16.6992 16.4199L11.8359 22.7129L10.0488 20.2109C9.78516 19.8418 9.36328 19.625 8.90625 19.625C8.44922 19.625 8.02734 19.8418 7.76367 20.2168L3.07617 26.7793L2.8125 27.1426V27.125V8.375C2.8125 7.85938 3.23438 7.4375 3.75 7.4375H26.25ZM3.75 4.625C1.68164 4.625 0 6.30664 0 8.375V27.125C0 29.1934 1.68164 30.875 3.75 30.875H26.25C28.3184 30.875 30 29.1934 30 27.125V8.375C30 6.30664 28.3184 4.625 26.25 4.625H3.75ZM8.4375 15.875C8.80684 15.875 9.17257 15.8023 9.5138 15.6609C9.85503 15.5196 10.1651 15.3124 10.4262 15.0512C10.6874 14.7901 10.8946 14.48 11.0359 14.1388C11.1773 13.7976 11.25 13.4318 11.25 13.0625C11.25 12.6932 11.1773 12.3274 11.0359 11.9862C10.8946 11.645 10.6874 11.3349 10.4262 11.0738C10.1651 10.8126 9.85503 10.6054 9.5138 10.4641C9.17257 10.3227 8.80684 10.25 8.4375 10.25C8.06816 10.25 7.70243 10.3227 7.3612 10.4641C7.01997 10.6054 6.70993 10.8126 6.44876 11.0738C6.1876 11.3349 5.98043 11.645 5.83909 11.9862C5.69775 12.3274 5.625 12.6932 5.625 13.0625C5.625 13.4318 5.69775 13.7976 5.83909 14.1388C5.98043 14.48 6.1876 14.7901 6.44876 15.0512C6.70993 15.3124 7.01997 15.5196 7.3612 15.6609C7.70243 15.8023 8.06816 15.875 8.4375 15.875Z" fill="#9CA3AF"/>
</g>
<defs>
<clipPath id="clip0_1_944">
<path d="M0 2.75H30V32.75H0V2.75Z" fill="white"/>
</clipPath>
</defs>
</svg>
