<svg width="14" height="24" viewBox="0 0 14 24" fill="none" xmlns="http://www.w3.org/2000/svg">
<path d="M14 24H0V0H14V24Z" stroke="#E5E7EB"/>
<g clip-path="url(#clip0_1_1160)">
<path d="M13.7063 11.7063C14.0969 11.3156 14.0969 10.6813 13.7063 10.2906L8.70625 5.29065C8.31563 4.90002 7.68125 4.90002 7.29063 5.29065C6.9 5.68127 6.9 6.31565 7.29063 6.70627L10.5875 10H1C0.446875 10 0 10.4469 0 11C0 11.5531 0.446875 12 1 12H10.5844L7.29375 15.2938C6.90312 15.6844 6.90312 16.3188 7.29375 16.7094C7.68437 17.1 8.31875 17.1 8.70938 16.7094L13.7094 11.7094L13.7063 11.7063Z" fill="white"/>
</g>
<defs>
<clipPath id="clip0_1_1160">
<path d="M0 3H14V19H0V3Z" fill="white"/>
</clipPath>
</defs>
</svg>
