<svg width="14" height="24" viewBox="0 0 14 24" fill="none" xmlns="http://www.w3.org/2000/svg">
<path d="M14 24H0V0H14V24Z" stroke="#E5E7EB"/>
<g clip-path="url(#clip0_1_382)">
<path d="M10 4.5C10 4.10218 9.84196 3.72064 9.56066 3.43934C9.27936 3.15804 8.89782 3 8.5 3C8.10218 3 7.72064 3.15804 7.43934 3.43934C7.15804 3.72064 7 4.10218 7 4.5C7 4.89782 7.15804 5.27936 7.43934 5.56066C7.72064 5.84196 8.10218 6 8.5 6C8.89782 6 9.27936 5.84196 9.56066 5.56066C9.84196 5.27936 10 4.89782 10 4.5ZM3.92812 8.48438C4.2375 8.175 4.65937 8 5.1 8C5.15937 8 5.21875 8.00313 5.275 8.00938L4.3 10.9375C4.00938 11.8125 4.35312 12.775 5.1375 13.2656L7.83125 14.95L7.0375 17.725C6.88438 18.2563 7.19375 18.8094 7.725 18.9625C8.25625 19.1156 8.80937 18.8062 8.9625 18.275L9.85938 15.1375C10.0437 14.4937 9.77812 13.8062 9.2125 13.4531L7.4375 12.3438L8.40312 9.76875L8.5625 10.1531C9.03125 11.2719 10.1219 12 11.3344 12H12C12.5531 12 13 11.5531 13 11C13 10.4469 12.5531 10 12 10H11.3344C10.9313 10 10.5656 9.75625 10.4125 9.38438L10.2156 8.91563C9.75937 7.81875 8.8375 6.98125 7.7 6.63125L6.17812 6.1625C5.83125 6.05625 5.46875 6 5.10313 6C4.13438 6 3.20312 6.38438 2.51875 7.07188L1.79375 7.79375C1.40313 8.18437 1.40313 8.81875 1.79375 9.20937C2.18438 9.6 2.81875 9.6 3.20937 9.20937L3.93125 8.4875L3.92812 8.48438ZM2.85 14H1C0.446875 14 0 14.4469 0 15C0 15.5531 0.446875 16 1 16H3.175C3.76875 16 4.30625 15.65 4.54688 15.1094L4.90625 14.3L4.60938 14.1125C4.0625 13.7719 3.65625 13.275 3.425 12.7094L2.85 14Z" fill="white"/>
</g>
<defs>
<clipPath id="clip0_1_382">
<path d="M0 3H14V19H0V3Z" fill="white"/>
</clipPath>
</defs>
</svg>
