<svg width="4" height="24" viewBox="0 0 4 24" fill="none" xmlns="http://www.w3.org/2000/svg">
<path d="M4 24H0V0H4V24Z" stroke="#E5E7EB"/>
<path d="M4 23H0V0H4V23Z" stroke="#E5E7EB"/>
<path d="M4 19H0V3H4V19Z" stroke="#E5E7EB"/>
<path d="M2 14.25C1.53587 14.25 1.09075 14.4344 0.762563 14.7626C0.434374 15.0908 0.25 15.5359 0.25 16C0.25 16.4641 0.434374 16.9092 0.762563 17.2374C1.09075 17.5656 1.53587 17.75 2 17.75C2.46413 17.75 2.90925 17.5656 3.23744 17.2374C3.56563 16.9092 3.75 16.4641 3.75 16C3.75 15.5359 3.56563 15.0908 3.23744 14.7626C2.90925 14.4344 2.46413 14.25 2 14.25ZM2 9.25C1.53587 9.25 1.09075 9.43437 0.762563 9.76256C0.434374 10.0908 0.25 10.5359 0.25 11C0.25 11.4641 0.434374 11.9092 0.762563 12.2374C1.09075 12.5656 1.53587 12.75 2 12.75C2.46413 12.75 2.90925 12.5656 3.23744 12.2374C3.56563 11.9092 3.75 11.4641 3.75 11C3.75 10.5359 3.56563 10.0908 3.23744 9.76256C2.90925 9.43437 2.46413 9.25 2 9.25ZM3.75 6C3.75 5.53587 3.56563 5.09075 3.23744 4.76256C2.90925 4.43437 2.46413 4.25 2 4.25C1.53587 4.25 1.09075 4.43437 0.762563 4.76256C0.434374 5.09075 0.25 5.53587 0.25 6C0.25 6.46413 0.434374 6.90925 0.762563 7.23744C1.09075 7.56563 1.53587 7.75 2 7.75C2.46413 7.75 2.90925 7.56563 3.23744 7.23744C3.56563 6.90925 3.75 6.46413 3.75 6Z" fill="#9CA3AF"/>
</svg>
