<svg width="19" height="24" viewBox="0 0 19 24" fill="none" xmlns="http://www.w3.org/2000/svg">
<path d="M19 24H1V0H19V24Z" stroke="#E5E7EB"/>
<path d="M10.1745 8.95312L10.8964 4.61875C10.9558 4.2625 11.2652 4 11.6277 4C11.862 4 12.0808 4.10938 12.2214 4.29688L12.7495 5H14.3777C14.7745 5 15.1558 5.15937 15.437 5.44062L15.9995 6H17.7495C18.1652 6 18.4995 6.33437 18.4995 6.75V7.5C18.4995 8.88125 17.3808 10 15.9995 10H14.9995H14.4995H13.8339L13.6745 10.9531L10.1745 8.95312ZM13.4995 12.0031V19C13.4995 19.5531 13.0527 20 12.4995 20H11.4995C10.9464 20 10.4995 19.5531 10.4995 19V15.4C9.74954 15.7844 8.89954 16 7.99954 16C7.09954 16 6.24954 15.7844 5.49954 15.4V19C5.49954 19.5531 5.05267 20 4.49954 20H3.49954C2.94642 20 2.49954 19.5531 2.49954 19V11.8063C1.59954 11.4656 0.89329 10.7031 0.64954 9.72813L0.53079 9.24375C0.396415 8.70937 0.721415 8.16563 1.25892 8.03125C1.79642 7.89687 2.33704 8.22188 2.47142 8.75938L2.59329 9.24375C2.70267 9.6875 3.10267 10 3.56204 10H4.49954H4.99954H9.99329L13.4995 12.0031ZM14.9995 6.5C14.9995 6.36739 14.9469 6.24021 14.8531 6.14645C14.7593 6.05268 14.6321 6 14.4995 6C14.3669 6 14.2398 6.05268 14.146 6.14645C14.0522 6.24021 13.9995 6.36739 13.9995 6.5C13.9995 6.63261 14.0522 6.75979 14.146 6.85355C14.2398 6.94732 14.3669 7 14.4995 7C14.6321 7 14.7593 6.94732 14.8531 6.85355C14.9469 6.75979 14.9995 6.63261 14.9995 6.5Z" fill="#F59E0B"/>
</svg>
