<svg width="25" height="28" viewBox="0 0 25 28" fill="none" xmlns="http://www.w3.org/2000/svg">
<path d="M25 28H0V0H25V28Z" stroke="#E5E7EB"/>
<path d="M25 23.5H0V3.5H25V23.5Z" stroke="#E5E7EB"/>
<path d="M12.1875 4.75C11.668 4.75 11.25 5.16797 11.25 5.6875C11.25 6.20703 11.668 6.625 12.1875 6.625H13.1914L14.543 9.125H8.70703L7.63672 7.64062C7.46094 7.39453 7.17578 7.25 6.875 7.25H4.6875C4.16797 7.25 3.75 7.66797 3.75 8.1875C3.75 8.70703 4.16797 9.125 4.6875 9.125H6.39453L7.25781 10.3242L6.21875 12.3984C5.82812 12.3008 5.41797 12.25 5 12.25C2.23828 12.25 0 14.4883 0 17.25C0 20.0117 2.23828 22.25 5 22.25C7.55078 22.25 9.65234 20.3398 9.96094 17.875H11.875C12.207 17.875 12.5117 17.6992 12.6836 17.4141L15.9961 11.8086L16.8438 13.375C15.7188 14.293 15 15.6875 15 17.25C15 20.0117 17.2383 22.25 20 22.25C22.7617 22.25 25 20.0117 25 17.25C25 14.4883 22.7617 12.25 20 12.25C19.4727 12.25 18.9648 12.332 18.4883 12.4844L14.6641 5.40625C14.4453 5 14.0234 4.75 13.5625 4.75H12.1875ZM17.9141 15.3633L19.1758 17.6953C19.4219 18.1523 19.9922 18.3203 20.4453 18.0742C20.8984 17.8281 21.0703 17.2578 20.8242 16.8047L19.5625 14.4727C19.7031 14.4492 19.8516 14.4375 20 14.4375C21.5547 14.4375 22.8125 15.6953 22.8125 17.25C22.8125 18.8047 21.5547 20.0625 20 20.0625C18.4453 20.0625 17.1875 18.8047 17.1875 17.25C17.1875 16.5234 17.4609 15.8633 17.9141 15.3633ZM5.20312 17.875H7.74219C7.45703 19.1289 6.33594 20.0625 5 20.0625C3.44531 20.0625 2.1875 18.8047 2.1875 17.25C2.1875 15.6953 3.44531 14.4375 5 14.4375C5.06641 14.4375 5.13281 14.4414 5.19922 14.4453L4.25391 16.3398C3.90234 17.0469 4.41406 17.8789 5.20312 17.8789V17.875ZM6.51953 16L8.5 12.043L11.3477 15.9961L11.3438 16H6.51562H6.51953ZM10.0586 11H14.293L12.3828 14.2344L10.0547 11H10.0586Z" fill="#6B7280"/>
</svg>
