<svg width="23" height="40" viewBox="0 0 23 40" fill="none" xmlns="http://www.w3.org/2000/svg">
<path d="M22.5 40H0V0H22.5V40Z" stroke="#E5E7EB"/>
<g clip-path="url(#clip0_1_1246)">
<path d="M11.25 3.875C11.25 2.97989 11.6056 2.12145 12.2385 1.48851C12.8714 0.855579 13.7299 0.5 14.625 0.5C15.5201 0.5 16.3785 0.855579 17.0115 1.48851C17.6444 2.12145 18 2.97989 18 3.875C18 4.77011 17.6444 5.62855 17.0115 6.26149C16.3785 6.89442 15.5201 7.25 14.625 7.25C13.7299 7.25 12.8714 6.89442 12.2385 6.26149C11.6056 5.62855 11.25 4.77011 11.25 3.875ZM8.89452 14.5133C8.82421 14.5414 8.76093 14.5695 8.69062 14.5977L8.12812 14.8438C6.97499 15.357 6.08906 16.3344 5.68827 17.5297L5.50546 18.0781C5.11171 19.2594 3.83906 19.8922 2.65781 19.4984C1.47656 19.1047 0.843744 17.832 1.23749 16.6508L1.42031 16.1023C2.22187 13.7047 3.99374 11.75 6.29999 10.7234L6.86249 10.4773C8.32499 9.83047 9.90702 9.49297 11.5101 9.49297C14.6461 9.49297 17.4727 11.3773 18.675 14.2672L19.7578 16.8617L21.2625 17.6141C22.3734 18.1695 22.8234 19.5195 22.268 20.6305C21.7125 21.7414 20.3625 22.1914 19.2516 21.6359L17.3672 20.7008C16.643 20.3352 16.0734 19.7305 15.7641 18.9781L15.0891 17.3609L13.732 21.9664L17.2125 25.7633C17.5922 26.1781 17.8594 26.6773 18 27.2258L19.6172 33.7016C19.9195 34.9039 19.1883 36.1273 17.9789 36.4297C16.7695 36.732 15.5531 36.0008 15.2508 34.7914L13.7039 28.5969L8.73281 23.1758C7.69218 22.0438 7.30546 20.4617 7.69921 18.9781L8.88749 14.5133H8.89452ZM4.83046 28.4844L6.58827 24.0969C6.73593 24.3078 6.90468 24.5047 7.08046 24.7016L9.94218 27.8234L8.92265 30.3687C8.7539 30.7906 8.50078 31.1773 8.17734 31.5008L3.83906 35.8391C2.96015 36.718 1.53281 36.718 0.6539 35.8391C-0.225006 34.9602 -0.225006 33.5328 0.6539 32.6539L4.83046 28.4844Z" fill="#4CAF50"/>
</g>
<defs>
<clipPath id="clip0_1_1246">
<path d="M0 0.5H22.5V36.5H0V0.5Z" fill="white"/>
</clipPath>
</defs>
</svg>
