<svg width="26" height="50" viewBox="0 0 26 50" fill="none" xmlns="http://www.w3.org/2000/svg">
<path d="M26 50H0V0H26V50Z" stroke="#E5E7EB"/>
<g clip-path="url(#clip0_1_1101)">
<g clip-path="url(#clip1_1_1101)">
<path d="M21.5 20C21.5 19.337 21.2366 18.7011 20.7678 18.2322C20.2989 17.7634 19.663 17.5 19 17.5C18.337 17.5 17.7011 17.7634 17.2322 18.2322C16.7634 18.7011 16.5 19.337 16.5 20C16.5 20.663 16.7634 21.2989 17.2322 21.7678C17.7011 22.2366 18.337 22.5 19 22.5C19.663 22.5 20.2989 22.2366 20.7678 21.7678C21.2366 21.2989 21.5 20.663 21.5 20ZM15 20C15 18.9391 15.4214 17.9217 16.1716 17.1716C16.9217 16.4214 17.9391 16 19 16C20.0609 16 21.0783 16.4214 21.8284 17.1716C22.5786 17.9217 23 18.9391 23 20C23 21.0609 22.5786 22.0783 21.8284 22.8284C21.0783 23.5786 20.0609 24 19 24C17.9391 24 16.9217 23.5786 16.1716 22.8284C15.4214 22.0783 15 21.0609 15 20ZM13.5406 30.5H24.4594C24.1813 28.5219 22.4813 27 20.4281 27H17.5719C15.5188 27 13.8187 28.5219 13.5406 30.5ZM12 31.0719C12 27.9937 14.4938 25.5 17.5719 25.5H20.4281C23.5063 25.5 26 27.9937 26 31.0719C26 31.5844 25.5844 32 25.0719 32H12.9281C12.4156 32 12 31.5844 12 31.0719Z" fill="#9CA3AF"/>
</g>
</g>
<defs>
<clipPath id="clip0_1_1101">
<rect width="14" height="16" fill="white" transform="translate(12 16)"/>
</clipPath>
<clipPath id="clip1_1_1101">
<path d="M12 16H26V32H12V16Z" fill="white"/>
</clipPath>
</defs>
</svg>
