<svg width="36" height="50" viewBox="0 0 36 50" fill="none" xmlns="http://www.w3.org/2000/svg">
<path d="M36 50H0V0H36V50Z" stroke="#E5E7EB"/>
<path d="M21 37H9V13H21V37Z" stroke="#E5E7EB"/>
<g clip-path="url(#clip0_1_1064)">
<g clip-path="url(#clip1_1_1064)">
<path d="M15.7406 31.6C17.3438 29.5938 21 24.7312 21 22C21 18.6875 18.3125 16 15 16C11.6875 16 9 18.6875 9 22C9 24.7312 12.6562 29.5938 14.2594 31.6C14.6438 32.0781 15.3562 32.0781 15.7406 31.6ZM15 20C15.5304 20 16.0391 20.2107 16.4142 20.5858C16.7893 20.9609 17 21.4696 17 22C17 22.5304 16.7893 23.0391 16.4142 23.4142C16.0391 23.7893 15.5304 24 15 24C14.4696 24 13.9609 23.7893 13.5858 23.4142C13.2107 23.0391 13 22.5304 13 22C13 21.4696 13.2107 20.9609 13.5858 20.5858C13.9609 20.2107 14.4696 20 15 20Z" fill="#4CAF50"/>
</g>
</g>
<defs>
<clipPath id="clip0_1_1064">
<rect width="12" height="16" fill="white" transform="translate(9 16)"/>
</clipPath>
<clipPath id="clip1_1_1064">
<path d="M9 16H21V32H9V16Z" fill="white"/>
</clipPath>
</defs>
</svg>
