<svg width="16" height="20" viewBox="0 0 16 20" fill="none" xmlns="http://www.w3.org/2000/svg">
<path d="M16 20H0V0H16V20Z" stroke="#E5E7EB"/>
<path d="M1 2.25H15C15.4142 2.25 15.75 2.58579 15.75 3V17C15.75 17.4142 15.4142 17.75 15 17.75H1C0.585786 17.75 0.25 17.4142 0.25 17V3C0.25 2.58579 0.585786 2.25 1 2.25Z" fill="white"/>
<path d="M1 2.25H15C15.4142 2.25 15.75 2.58579 15.75 3V17C15.75 17.4142 15.4142 17.75 15 17.75H1C0.585786 17.75 0.25 17.4142 0.25 17V3C0.25 2.58579 0.585786 2.25 1 2.25Z" stroke="black" stroke-width="0.5"/>
</svg>
