<svg width="30" height="40" viewBox="0 0 30 40" fill="none" xmlns="http://www.w3.org/2000/svg">
<path d="M30 40H0V0H30V40Z" stroke="#E5E7EB"/>
<g clip-path="url(#clip0_1_671)">
<path d="M22 28H8V12H22V28Z" stroke="#E5E7EB"/>
<path d="M8.2937 19.2938C7.90308 19.6844 7.90308 20.3188 8.2937 20.7094L13.2937 25.7094C13.6843 26.1 14.3187 26.1 14.7093 25.7094C15.1 25.3188 15.1 24.6844 14.7093 24.2938L11.4125 21H21C21.5531 21 22 20.5531 22 20C22 19.4469 21.5531 19 21 19H11.4156L14.7062 15.7063C15.0968 15.3156 15.0968 14.6813 14.7062 14.2906C14.3156 13.9 13.6812 13.9 13.2906 14.2906L8.29058 19.2906L8.2937 19.2938Z" fill="#374151"/>
</g>
<defs>
<clipPath id="clip0_1_671">
<rect width="14" height="16" fill="white" transform="translate(8 12)"/>
</clipPath>
</defs>
</svg>
