<svg width="24" height="24" viewBox="0 0 24 24" fill="none" xmlns="http://www.w3.org/2000/svg">
<path d="M10.866 10.116L2.86597 4.885V15.385C2.86597 15.5643 2.92364 15.7117 3.03897 15.827C3.1543 15.9423 3.3013 16 3.47997 16H13.595V17H3.48097C3.02097 17 2.63664 16.846 2.32797 16.538C2.0193 16.23 1.8653 15.8457 1.86597 15.385V4.615C1.86597 4.155 2.01997 3.77067 2.32797 3.462C2.63597 3.15334 3.0203 2.99934 3.48097 3H18.25C18.71 3 19.0943 3.15434 19.403 3.463C19.7116 3.77167 19.866 4.15567 19.866 4.615V9.385H18.866V4.885L10.866 10.116ZM10.866 9L18.558 4H3.17297L10.866 9ZM18.866 20.962C17.958 20.962 17.186 20.644 16.55 20.008C15.914 19.372 15.596 18.6 15.596 17.692V13.192C15.596 12.6587 15.777 12.2113 16.139 11.85C16.501 11.4887 16.9483 11.308 17.481 11.308C18.0136 11.308 18.461 11.4887 18.823 11.85C19.185 12.2113 19.366 12.6587 19.366 13.192V17.692H18.366V13.192C18.366 12.9433 18.2806 12.734 18.11 12.564C17.9393 12.3933 17.7293 12.308 17.48 12.308C17.2306 12.308 17.0213 12.3933 16.852 12.564C16.6826 12.7347 16.5973 12.944 16.596 13.192V17.692C16.596 18.3187 16.8176 18.8537 17.261 19.297C17.7036 19.7403 18.2386 19.962 18.866 19.962C19.4926 19.962 20.0273 19.7403 20.47 19.297C20.9133 18.8543 21.135 18.3193 21.135 17.692V13.692H22.135V17.692C22.135 18.6 21.817 19.372 21.181 20.008C20.545 20.644 19.774 20.962 18.866 20.962ZM2.86597 4.885L2.86497 4V16L2.86597 4.885Z" fill="black"/>
</svg>
