<svg width="13" height="17" viewBox="0 0 13 17" fill="none" xmlns="http://www.w3.org/2000/svg">
<path d="M10 1.5C10 1.10218 9.84196 0.720644 9.56066 0.43934C9.27936 0.158035 8.89782 0 8.5 0C8.10218 0 7.72064 0.158035 7.43934 0.43934C7.15804 0.720644 7 1.10218 7 1.5C7 1.89782 7.15804 2.27936 7.43934 2.56066C7.72064 2.84196 8.10218 3 8.5 3C8.89782 3 9.27936 2.84196 9.56066 2.56066C9.84196 2.27936 10 1.89782 10 1.5ZM3.92812 5.48438C4.2375 5.175 4.65937 5 5.1 5C5.15937 5 5.21875 5.00313 5.275 5.00938L4.3 7.9375C4.00938 8.8125 4.35312 9.775 5.1375 10.2656L7.83125 11.95L7.0375 14.725C6.88438 15.2563 7.19375 15.8094 7.725 15.9625C8.25625 16.1156 8.80937 15.8062 8.9625 15.275L9.85938 12.1375C10.0437 11.4937 9.77812 10.8062 9.2125 10.4531L7.4375 9.34375L8.40312 6.76875L8.5625 7.15312C9.03125 8.27187 10.1219 9 11.3344 9H12C12.5531 9 13 8.55313 13 8C13 7.44688 12.5531 7 12 7H11.3344C10.9313 7 10.5656 6.75625 10.4125 6.38438L10.2156 5.91563C9.75937 4.81875 8.8375 3.98125 7.7 3.63125L6.17812 3.1625C5.83125 3.05625 5.46875 3 5.10313 3C4.13438 3 3.20312 3.38438 2.51875 4.07188L1.79375 4.79375C1.40313 5.18437 1.40313 5.81875 1.79375 6.20937C2.18438 6.6 2.81875 6.6 3.20937 6.20937L3.93125 5.4875L3.92812 5.48438ZM2.85 11H1C0.446875 11 0 11.4469 0 12C0 12.5531 0.446875 13 1 13H3.175C3.76875 13 4.30625 12.65 4.54688 12.1094L4.90625 11.3L4.60938 11.1125C4.0625 10.7719 3.65625 10.275 3.425 9.70938L2.85 11Z" fill="#FFC107"/>
</svg>
