<svg width="24" height="24" viewBox="0 0 24 24" fill="none" xmlns="http://www.w3.org/2000/svg">
<path fill-rule="evenodd" clip-rule="evenodd" d="M2.92976 11.2C3.00176 6.24001 7.07576 2.25001 12.0788 2.25001C13.6451 2.24758 15.1858 2.64684 16.5539 3.40964C17.9219 4.17243 19.0715 5.27328 19.8928 6.60701C19.991 6.77615 20.0192 6.97696 19.9715 7.16664C19.9238 7.35631 19.8039 7.51985 19.6373 7.62237C19.4708 7.72489 19.2707 7.75829 19.0799 7.71544C18.8891 7.6726 18.7225 7.5569 18.6158 7.39301C17.9287 6.27741 16.9669 5.35669 15.8224 4.71888C14.6779 4.08107 13.389 3.74748 12.0788 3.75001C7.89376 3.75001 4.50376 7.07801 4.43076 11.198L4.83076 10.801C4.97199 10.6608 5.16311 10.5825 5.36209 10.5833C5.56106 10.584 5.75159 10.6638 5.89176 10.805C6.03193 10.9462 6.11025 11.1374 6.1095 11.3363C6.10875 11.5353 6.02899 11.7258 5.88776 11.866L4.20776 13.532C4.0673 13.6712 3.87753 13.7494 3.67976 13.7494C3.48199 13.7494 3.29222 13.6712 3.15176 13.532L1.47176 11.866C1.40177 11.7967 1.34611 11.7142 1.30798 11.6234C1.26985 11.5325 1.24998 11.4351 1.24952 11.3365C1.24906 11.238 1.268 11.1404 1.30528 11.0492C1.34255 10.958 1.39742 10.875 1.46676 10.805C1.5361 10.735 1.61854 10.6794 1.70939 10.6412C1.80024 10.6031 1.8977 10.5832 1.99622 10.5828C2.09475 10.5823 2.1924 10.6013 2.2836 10.6385C2.3748 10.6758 2.45777 10.7307 2.52776 10.8L2.92976 11.2ZM19.7858 10.467C19.9262 10.3281 20.1157 10.2502 20.3133 10.2502C20.5108 10.2502 20.7003 10.3281 20.8408 10.467L22.5268 12.133C22.5987 12.2018 22.6562 12.2842 22.696 12.3754C22.7357 12.4667 22.7569 12.5649 22.7584 12.6644C22.7598 12.7639 22.7414 12.8627 22.7042 12.955C22.6671 13.0473 22.6119 13.1314 22.542 13.2022C22.4721 13.273 22.3887 13.3291 22.2969 13.3674C22.205 13.4057 22.1065 13.4253 22.0069 13.4251C21.9074 13.4249 21.8089 13.4049 21.7172 13.3662C21.6255 13.3276 21.5424 13.2711 21.4728 13.2L21.0628 12.795C20.9928 17.76 16.9018 21.75 11.8828 21.75C10.3125 21.7535 8.76755 21.3551 7.39487 20.5926C6.02219 19.8301 4.86752 18.729 4.04076 17.394C3.98902 17.3102 3.9543 17.2169 3.93859 17.1197C3.92287 17.0224 3.92647 16.923 3.94917 16.8271C3.97188 16.7312 4.01324 16.6408 4.07091 16.5609C4.12857 16.481 4.20141 16.4133 4.28526 16.3615C4.36911 16.3098 4.46233 16.2751 4.5596 16.2593C4.65686 16.2436 4.75627 16.2472 4.85215 16.2699C4.94802 16.2926 5.03849 16.334 5.11838 16.3917C5.19827 16.4493 5.26602 16.5222 5.31776 16.606C6.01008 17.7232 6.97683 18.6446 8.12599 19.2824C9.27515 19.9203 10.5685 20.2534 11.8828 20.25C16.0888 20.25 19.4928 16.917 19.5628 12.797L19.1548 13.2C19.0133 13.3399 18.822 13.4179 18.623 13.4168C18.424 13.4156 18.2337 13.3355 18.0938 13.194C17.9539 13.0525 17.8759 12.8612 17.877 12.6623C17.8781 12.4633 17.9583 12.2729 18.0998 12.133L19.7858 10.467Z" fill="black"/>
</svg>
