<svg width="18" height="24" viewBox="0 0 18 24" fill="none" xmlns="http://www.w3.org/2000/svg">
<path d="M18 24H0V0H18V24Z" stroke="#E5E7EB"/>
<g clip-path="url(#clip0_1_422)">
<path d="M9.67503 7.95312L10.3969 3.61875C10.4563 3.2625 10.7657 3 11.1282 3C11.3625 3 11.5813 3.10938 11.7219 3.29688L12.25 4H13.8782C14.275 4 14.6563 4.15937 14.9375 4.44062L15.5 5H17.25C17.6657 5 18 5.33437 18 5.75V6.5C18 7.88125 16.8813 9 15.5 9H14.5H14H13.3344L13.175 9.95312L9.67503 7.95312ZM13 11.0031V18C13 18.5531 12.5532 19 12 19H11C10.4469 19 10 18.5531 10 18V14.4C9.25003 14.7844 8.40003 15 7.50003 15C6.60003 15 5.75003 14.7844 5.00003 14.4V18C5.00003 18.5531 4.55315 19 4.00003 19H3.00003C2.4469 19 2.00003 18.5531 2.00003 18V10.8063C1.10003 10.4656 0.393779 9.70312 0.150029 8.72813L0.0312787 8.24375C-0.103096 7.70937 0.221904 7.16563 0.759404 7.03125C1.2969 6.89687 1.83753 7.22188 1.9719 7.75938L2.09378 8.24375C2.20315 8.6875 2.60315 9 3.06253 9H4.00003H4.50003H9.49378L13 11.0031ZM14.5 5.5C14.5 5.36739 14.4474 5.24021 14.3536 5.14645C14.2598 5.05268 14.1326 5 14 5C13.8674 5 13.7402 5.05268 13.6465 5.14645C13.5527 5.24021 13.5 5.36739 13.5 5.5C13.5 5.63261 13.5527 5.75979 13.6465 5.85355C13.7402 5.94732 13.8674 6 14 6C14.1326 6 14.2598 5.94732 14.3536 5.85355C14.4474 5.75979 14.5 5.63261 14.5 5.5Z" fill="white"/>
</g>
<defs>
<clipPath id="clip0_1_422">
<path d="M0 3H18V19H0V3Z" fill="white"/>
</clipPath>
</defs>
</svg>
