<svg width="30" height="32" viewBox="0 0 30 32" fill="none" xmlns="http://www.w3.org/2000/svg">
<path d="M30 32H0V0H30V32Z" stroke="#E5E7EB"/>
<g clip-path="url(#clip0_1_1325)">
<path d="M19.5 3C16.5141 3 12 4.5 12 4.5V10.5C14.25 10.5 15.5625 11.25 16.875 12C18.1875 12.75 19.5 13.5 21.75 13.5C24.3937 13.5 30 12.75 30 9C30 5.25 24 3 19.5 3ZM6 7.5C6 9.15469 7.34531 10.5 9 10.5H10.5V4.5H9C7.34531 4.5 6 5.84531 6 7.5ZM13.5 27C18 27 24 24.75 24 21C24 17.25 18.3937 16.5 15.75 16.5C13.5 16.5 12.1875 17.25 10.875 18C9.5625 18.75 8.25 19.5 6 19.5V25.5C6 25.5 10.5141 27 13.5 27ZM0 22.5C0 24.1547 1.34531 25.5 3 25.5H4.5V19.5H3C1.34531 19.5 0 20.8453 0 22.5Z" fill="white"/>
</g>
<defs>
<clipPath id="clip0_1_1325">
<path d="M0 3H30V27H0V3Z" fill="white"/>
</clipPath>
</defs>
</svg>
