<svg width="9" height="20" viewBox="0 0 9 20" fill="none" xmlns="http://www.w3.org/2000/svg">
<path d="M8.75 20H0V0H8.75V20Z" stroke="#E5E7EB"/>
<g clip-path="url(#clip0_1_338)">
<path d="M4.3751 4.0625C4.3751 3.7144 4.51338 3.38056 4.75952 3.13442C5.00566 2.88828 5.3395 2.75 5.6876 2.75C6.03569 2.75 6.36953 2.88828 6.61568 3.13442C6.86182 3.38056 7.0001 3.7144 7.0001 4.0625C7.0001 4.4106 6.86182 4.74444 6.61568 4.99058C6.36953 5.23672 6.03569 5.375 5.6876 5.375C5.3395 5.375 5.00566 5.23672 4.75952 4.99058C4.51338 4.74444 4.3751 4.4106 4.3751 4.0625ZM3.45908 8.19961C3.43174 8.21055 3.40713 8.22148 3.37979 8.23242L3.16104 8.32812C2.7126 8.52773 2.36807 8.90781 2.21221 9.37266L2.14111 9.58594C1.98799 10.0453 1.49307 10.2914 1.03369 10.1383C0.574316 9.98516 0.328223 9.49023 0.481348 9.03086L0.552441 8.81758C0.86416 7.88516 1.55322 7.125 2.4501 6.72578L2.66885 6.63008C3.2376 6.37852 3.85283 6.24727 4.47627 6.24727C5.6958 6.24727 6.79502 6.98008 7.2626 8.10391L7.68369 9.11289L8.26885 9.40547C8.70088 9.62148 8.87588 10.1465 8.65986 10.5785C8.44385 11.0105 7.91885 11.1855 7.48682 10.9695L6.754 10.6059C6.47236 10.4637 6.25088 10.2285 6.13057 9.93594L5.86807 9.30703L5.34033 11.098L6.69385 12.5746C6.8415 12.7359 6.94541 12.9301 7.0001 13.1434L7.629 15.6617C7.74658 16.1293 7.46221 16.6051 6.99189 16.7227C6.52158 16.8402 6.04853 16.5559 5.93096 16.0855L5.32939 13.6766L3.39619 11.5684C2.9915 11.1281 2.84111 10.5129 2.99424 9.93594L3.45635 8.19961H3.45908ZM1.87861 13.6328L2.56221 11.9266C2.61963 12.0086 2.68525 12.0852 2.75361 12.1617L3.8665 13.3758L3.47002 14.3656C3.40439 14.5297 3.30596 14.6801 3.18018 14.8059L1.49307 16.493C1.15127 16.8348 0.596191 16.8348 0.254395 16.493C-0.0874023 16.1512 -0.0874023 15.5961 0.254395 15.2543L1.87861 13.6328Z" fill="#374151"/>
</g>
<defs>
<clipPath id="clip0_1_338">
<path d="M0 2.75H8.75V16.75H0V2.75Z" fill="white"/>
</clipPath>
</defs>
</svg>
