<svg width="20" height="28" viewBox="0 0 20 28" fill="none" xmlns="http://www.w3.org/2000/svg">
<path d="M20 28H0V0H20V28Z" stroke="#E5E7EB"/>
<path d="M20 23.5H0V3.5H20V23.5Z" stroke="#E5E7EB"/>
<path d="M10.1741 10.9531L10.8959 6.61875C10.9553 6.2625 11.2647 6 11.6272 6C11.8616 6 12.0803 6.10938 12.2209 6.29688L12.7491 7H14.3772C14.7741 7 15.1553 7.15937 15.4366 7.44062L15.9991 8H17.7491C18.1647 8 18.4991 8.33437 18.4991 8.75V9.5C18.4991 10.8812 17.3803 12 15.9991 12H14.9991H14.4991H13.8334L13.6741 12.9531L10.1741 10.9531ZM13.4991 14.0031V21C13.4991 21.5531 13.0522 22 12.4991 22H11.4991C10.9459 22 10.4991 21.5531 10.4991 21V17.4C9.74905 17.7844 8.89905 18 7.99905 18C7.09905 18 6.24905 17.7844 5.49905 17.4V21C5.49905 21.5531 5.05218 22 4.49905 22H3.49905C2.94593 22 2.49905 21.5531 2.49905 21V13.8063C1.59905 13.4656 0.892802 12.7031 0.649052 11.7281L0.530302 11.2438C0.395927 10.7094 0.720927 10.1656 1.25843 10.0312C1.79593 9.89687 2.33655 10.2219 2.47093 10.7594L2.5928 11.2438C2.70218 11.6875 3.10218 12 3.56155 12H4.49905H4.99905H9.9928L13.4991 14.0031ZM14.9991 8.5C14.9991 8.36739 14.9464 8.24021 14.8526 8.14645C14.7588 8.05268 14.6317 8 14.4991 8C14.3664 8 14.2393 8.05268 14.1455 8.14645C14.0517 8.24021 13.9991 8.36739 13.9991 8.5C13.9991 8.63261 14.0517 8.75979 14.1455 8.85355C14.2393 8.94732 14.3664 9 14.4991 9C14.6317 9 14.7588 8.94732 14.8526 8.85355C14.9464 8.75979 14.9991 8.63261 14.9991 8.5Z" fill="#6B7280"/>
</svg>
