<svg width="23" height="28" viewBox="0 0 23 28" fill="none" xmlns="http://www.w3.org/2000/svg">
<path d="M22.5 28H0V0H22.5V28Z" stroke="#E5E7EB"/>
<g clip-path="url(#clip0_1_2004)">
<path d="M18.3633 12.5352C18.3633 12.5352 18.6602 13.9883 18.7266 14.293H17.4219C17.5508 13.9453 18.0469 12.5938 18.0469 12.5938C18.0391 12.6055 18.1758 12.2383 18.2539 12.0117L18.3633 12.5352ZM22.5 6.625V20.375C22.5 21.4102 21.6602 22.25 20.625 22.25H1.875C0.839844 22.25 0 21.4102 0 20.375V6.625C0 5.58984 0.839844 4.75 1.875 4.75H20.625C21.6602 4.75 22.5 5.58984 22.5 6.625ZM5.95703 16.4375L8.42578 10.375H6.76562L5.23047 14.5156L5.0625 13.6758L4.51562 10.8867C4.42578 10.5 4.14844 10.3906 3.80469 10.375H1.27734L1.25 10.4961C1.86719 10.6523 2.41797 10.8789 2.89844 11.1641L4.29688 16.4375H5.95703ZM9.64453 16.4453L10.6289 10.375H9.05859L8.07812 16.4453H9.64453ZM15.1094 14.4609C15.1172 13.7695 14.6953 13.2422 13.793 12.8086C13.2422 12.5312 12.9062 12.3438 12.9062 12.0586C12.9141 11.8008 13.1914 11.5352 13.8086 11.5352C14.3203 11.5234 14.6953 11.6445 14.9766 11.7656L15.1172 11.832L15.332 10.5195C15.0234 10.3984 14.5312 10.2617 13.9258 10.2617C12.375 10.2617 11.2852 11.0898 11.2773 12.2695C11.2656 13.1406 12.0586 13.625 12.6523 13.918C13.2578 14.2148 13.4648 14.4102 13.4648 14.6719C13.457 15.0781 12.9727 15.2656 12.5234 15.2656C11.8984 15.2656 11.5625 15.168 11.0508 14.9414L10.8438 14.8438L10.625 16.207C10.9922 16.375 11.6719 16.5234 12.375 16.5312C14.0234 16.5352 15.0977 15.7188 15.1094 14.4609ZM20.625 16.4453L19.3594 10.375H18.1445C17.7695 10.375 17.4844 10.4844 17.3242 10.8789L14.9922 16.4453H16.6406C16.6406 16.4453 16.9102 15.6953 16.9688 15.5352H18.9844C19.0312 15.75 19.1719 16.4453 19.1719 16.4453H20.625Z" fill="#2563EB"/>
</g>
<defs>
<clipPath id="clip0_1_2004">
<path d="M0 3.5H22.5V23.5H0V3.5Z" fill="white"/>
</clipPath>
</defs>
</svg>
