<svg width="18" height="16" viewBox="0 0 18 16" fill="none" xmlns="http://www.w3.org/2000/svg">
<path d="M17 0C17.5531 0 18 0.446875 18 1V15C18 15.5531 17.5531 16 17 16C16.4469 16 16 15.5531 16 15V1C16 0.446875 16.4469 0 17 0ZM13 3C13.5531 3 14 3.44688 14 4V15C14 15.5531 13.5531 16 13 16C12.4469 16 12 15.5531 12 15V4C12 3.44688 12.4469 3 13 3ZM10 7V15C10 15.5531 9.55313 16 9 16C8.44687 16 8 15.5531 8 15V7C8 6.44688 8.44687 6 9 6C9.55313 6 10 6.44688 10 7ZM5 9C5.55312 9 6 9.44687 6 10V15C6 15.5531 5.55312 16 5 16C4.44688 16 4 15.5531 4 15V10C4 9.44687 4.44688 9 5 9ZM2 13V15C2 15.5531 1.55313 16 1 16C0.446875 16 0 15.5531 0 15V13C0 12.4469 0.446875 12 1 12C1.55313 12 2 12.4469 2 13Z" fill="#1F2937"/>
</svg>
