<svg width="14" height="24" viewBox="0 0 14 24" fill="none" xmlns="http://www.w3.org/2000/svg">
<path d="M14 24H0V0H14V24Z" stroke="#E5E7EB"/>
<g clip-path="url(#clip0_1_980)">
<g clip-path="url(#clip1_1_980)">
<path d="M0.293945 11.2938C-0.0966797 11.6844 -0.0966797 12.3188 0.293945 12.7094L5.29395 17.7094C5.68457 18.1 6.31895 18.1 6.70957 17.7094C7.1002 17.3188 7.1002 16.6844 6.70957 16.2938L3.4127 13H13.0002C13.5533 13 14.0002 12.5531 14.0002 12C14.0002 11.4469 13.5533 11 13.0002 11H3.41582L6.70645 7.70625C7.09707 7.31563 7.09707 6.68125 6.70645 6.29063C6.31582 5.9 5.68145 5.9 5.29082 6.29063L0.29082 11.2906L0.293945 11.2938Z" fill="#4B5563"/>
</g>
</g>
<defs>
<clipPath id="clip0_1_980">
<rect width="14" height="16" fill="white" transform="translate(0 4)"/>
</clipPath>
<clipPath id="clip1_1_980">
<path d="M0 4H14V20H0V4Z" fill="white"/>
</clipPath>
</defs>
</svg>
