<svg width="18" height="28" viewBox="0 0 18 28" fill="none" xmlns="http://www.w3.org/2000/svg">
<path d="M17.5 28H0V0H17.5V28Z" stroke="#E5E7EB"/>
<g clip-path="url(#clip0_1_321)">
<path d="M8.75 13.5C10.0761 13.5 11.3479 12.9732 12.2855 12.0355C13.2232 11.0979 13.75 9.82608 13.75 8.5C13.75 7.17392 13.2232 5.90215 12.2855 4.96447C11.3479 4.02678 10.0761 3.5 8.75 3.5C7.42392 3.5 6.15215 4.02678 5.21447 4.96447C4.27678 5.90215 3.75 7.17392 3.75 8.5C3.75 9.82608 4.27678 11.0979 5.21447 12.0355C6.15215 12.9732 7.42392 13.5 8.75 13.5ZM6.96484 15.375C3.11719 15.375 0 18.4922 0 22.3398C0 22.9805 0.519531 23.5 1.16016 23.5H16.3398C16.9805 23.5 17.5 22.9805 17.5 22.3398C17.5 18.4922 14.3828 15.375 10.5352 15.375H6.96484Z" fill="#374151"/>
</g>
<defs>
<clipPath id="clip0_1_321">
<path d="M0 3.5H17.5V23.5H0V3.5Z" fill="white"/>
</clipPath>
</defs>
</svg>
