<svg width="30" height="50" viewBox="0 0 30 50" fill="none" xmlns="http://www.w3.org/2000/svg">
<path d="M30 50H0V0H30V50Z" stroke="#E5E7EB"/>
<g clip-path="url(#clip0_1_1135)">
<g clip-path="url(#clip1_1_1135)">
<path d="M8.99995 18.5C6.96245 18.5 5.28745 19.425 4.00308 20.6156C2.79995 21.7344 1.9687 23.0625 1.5437 24C1.9687 24.9375 2.79995 26.2656 3.99995 27.3844C5.28745 28.575 6.96245 29.5 8.99995 29.5C11.0375 29.5 12.7125 28.575 13.9968 27.3844C15.2 26.2656 16.0312 24.9375 16.4562 24C16.0312 23.0625 15.2 21.7344 14 20.6156C12.7125 19.425 11.0375 18.5 8.99995 18.5ZM2.9812 19.5187C4.45308 18.15 6.47495 17 8.99995 17C11.525 17 13.5468 18.15 15.0187 19.5187C16.4812 20.8781 17.4593 22.5 17.9249 23.6156C18.0281 23.8625 18.0281 24.1375 17.9249 24.3844C17.4593 25.5 16.4812 27.125 15.0187 28.4812C13.5468 29.85 11.525 31 8.99995 31C6.47495 31 4.45308 29.85 2.9812 28.4812C1.5187 27.125 0.540576 25.5 0.0780762 24.3844C-0.0250488 24.1375 -0.0250488 23.8625 0.0780762 23.6156C0.540576 22.5 1.5187 20.875 2.9812 19.5187ZM8.99995 26.5C10.3812 26.5 11.5 25.3813 11.5 24C11.5 22.6188 10.3812 21.5 8.99995 21.5C8.97808 21.5 8.95933 21.5 8.93745 21.5C8.97808 21.6594 8.99995 21.8281 8.99995 22C8.99995 23.1031 8.10308 24 6.99995 24C6.82808 24 6.65933 23.9781 6.49995 23.9375C6.49995 23.9594 6.49995 23.9781 6.49995 24C6.49995 25.3813 7.6187 26.5 8.99995 26.5ZM8.99995 20C10.0608 20 11.0782 20.4214 11.8284 21.1716C12.5785 21.9217 13 22.9391 13 24C13 25.0609 12.5785 26.0783 11.8284 26.8284C11.0782 27.5786 10.0608 28 8.99995 28C7.93909 28 6.92167 27.5786 6.17152 26.8284C5.42138 26.0783 4.99995 25.0609 4.99995 24C4.99995 22.9391 5.42138 21.9217 6.17152 21.1716C6.92167 20.4214 7.93909 20 8.99995 20Z" fill="#9CA3AF"/>
</g>
</g>
<defs>
<clipPath id="clip0_1_1135">
<rect width="18" height="16" fill="white" transform="translate(0 16)"/>
</clipPath>
<clipPath id="clip1_1_1135">
<path d="M0 16H18V32H0V16Z" fill="white"/>
</clipPath>
</defs>
</svg>
