<svg width="18" height="28" viewBox="0 0 18 28" fill="none" xmlns="http://www.w3.org/2000/svg">
<path d="M17.5 28H0V0H17.5V28Z" stroke="#E5E7EB"/>
<path d="M17.5 28H0V0H17.5V28Z" stroke="#E5E7EB"/>
<g clip-path="url(#clip0_1_1991)">
<path d="M0.367188 12.6172C-0.121094 13.1055 -0.121094 13.8984 0.367188 14.3867L6.61719 20.6367C7.10547 21.125 7.89844 21.125 8.38672 20.6367C8.875 20.1484 8.875 19.3555 8.38672 18.8672L4.26562 14.75H16.25C16.9414 14.75 17.5 14.1914 17.5 13.5C17.5 12.8086 16.9414 12.25 16.25 12.25H4.26953L8.38281 8.13281C8.87109 7.64453 8.87109 6.85156 8.38281 6.36328C7.89453 5.875 7.10156 5.875 6.61328 6.36328L0.363281 12.6133L0.367188 12.6172Z" fill="#374151"/>
</g>
<defs>
<clipPath id="clip0_1_1991">
<path d="M0 3.5H17.5V23.5H0V3.5Z" fill="white"/>
</clipPath>
</defs>
</svg>
