<svg width="26" height="50" viewBox="0 0 26 50" fill="none" xmlns="http://www.w3.org/2000/svg">
<path d="M26 50H0V0H26V50Z" stroke="#E5E7EB"/>
<g clip-path="url(#clip0_1_1139)">
<g clip-path="url(#clip1_1_1139)">
<path d="M16.5 20.5V22H21.5V20.5C21.5 19.1188 20.3813 18 19 18C17.6188 18 16.5 19.1188 16.5 20.5ZM14.5 22V20.5C14.5 18.0156 16.5156 16 19 16C21.4844 16 23.5 18.0156 23.5 20.5V22H24C25.1031 22 26 22.8969 26 24V30C26 31.1031 25.1031 32 24 32H14C12.8969 32 12 31.1031 12 30V24C12 22.8969 12.8969 22 14 22H14.5Z" fill="#9CA3AF"/>
</g>
</g>
<defs>
<clipPath id="clip0_1_1139">
<rect width="14" height="16" fill="white" transform="translate(12 16)"/>
</clipPath>
<clipPath id="clip1_1_1139">
<path d="M12 16H26V32H12V16Z" fill="white"/>
</clipPath>
</defs>
</svg>
