<svg width="20" height="24" viewBox="0 0 20 24" fill="none" xmlns="http://www.w3.org/2000/svg">
<path d="M20 24H0V0H20V24Z" stroke="#E5E7EB"/>
<g clip-path="url(#clip0_1_1356)">
<path d="M18.1188 12.3657C19.8845 10.6 19.8845 7.74065 18.1188 5.97503C16.5563 4.41253 14.0938 4.2094 12.297 5.49378L12.247 5.52815C11.797 5.85003 11.6938 6.47503 12.0157 6.9219C12.3376 7.36878 12.9626 7.47503 13.4095 7.15315L13.4595 7.11878C14.4626 6.40315 15.8345 6.51565 16.7032 7.38753C17.6876 8.3719 17.6876 9.96565 16.7032 10.95L13.197 14.4625C12.2126 15.4469 10.6188 15.4469 9.63447 14.4625C8.7626 13.5907 8.6501 12.2188 9.36572 11.2188L9.4001 11.1688C9.72197 10.7188 9.61572 10.0938 9.16885 9.77503C8.72197 9.45628 8.09385 9.5594 7.7751 10.0063L7.74072 10.0563C6.45322 11.85 6.65635 14.3125 8.21885 15.875C9.98447 17.6407 12.8438 17.6407 14.6095 15.875L18.1188 12.3657ZM1.88135 11.6344C0.115723 13.4 0.115723 16.2594 1.88135 18.025C3.44385 19.5875 5.90635 19.7907 7.70322 18.5063L7.75322 18.4719C8.20322 18.15 8.30635 17.525 7.98447 17.0782C7.6626 16.6313 7.0376 16.525 6.59072 16.8469L6.54072 16.8813C5.5376 17.5969 4.16572 17.4844 3.29697 16.6125C2.3126 15.625 2.3126 14.0313 3.29697 13.0469L6.80322 9.53753C7.7876 8.55315 9.38135 8.55315 10.3657 9.53753C11.2376 10.4094 11.3501 11.7813 10.6345 12.7844L10.6001 12.8344C10.2782 13.2844 10.3845 13.9094 10.8313 14.2282C11.2782 14.5469 11.9063 14.4438 12.2251 13.9969L12.2595 13.9469C13.547 12.15 13.3438 9.68753 11.7813 8.12503C10.0157 6.3594 7.15635 6.3594 5.39072 8.12503L1.88135 11.6344Z" fill="white"/>
</g>
<defs>
<clipPath id="clip0_1_1356">
<path d="M0 4H20V20H0V4Z" fill="white"/>
</clipPath>
</defs>
</svg>
