<svg width="29" height="46" viewBox="0 0 29 46" fill="none" xmlns="http://www.w3.org/2000/svg">
<path d="M14.4996 4.31271C14.4996 3.16891 14.9576 2.07195 15.773 1.26316C16.5884 0.454374 17.6943 0 18.8474 0C20.0005 0 21.1064 0.454374 21.9218 1.26316C22.7372 2.07195 23.1952 3.16891 23.1952 4.31271C23.1952 5.45651 22.7372 6.55347 21.9218 7.36226C21.1064 8.17105 20.0005 8.62542 18.8474 8.62542C17.6943 8.62542 16.5884 8.17105 15.773 7.36226C14.9576 6.55347 14.4996 5.45651 14.4996 4.31271ZM11.4651 17.9067C11.3746 17.9427 11.293 17.9786 11.2025 18.0146L10.4778 18.329C8.99231 18.9849 7.851 20.2338 7.3347 21.7612L7.09919 22.462C6.59195 23.9715 4.95245 24.7801 3.43071 24.277C1.90897 23.7738 1.09375 22.1476 1.601 20.6381L1.83651 19.9373C2.86912 16.8735 5.15173 14.3757 8.12274 13.0639L8.84738 12.7495C10.7314 11.9228 12.7695 11.4916 14.8347 11.4916C18.8746 11.4916 22.5159 13.8995 24.0648 17.5923L25.4597 20.9077L27.3981 21.869C28.8293 22.5788 29.409 24.3039 28.6934 25.7235C27.9778 27.1431 26.2387 27.7181 24.8075 27.0083L22.38 25.8134C21.447 25.3462 20.7133 24.5735 20.3148 23.6121L19.4452 21.5456L17.697 27.4306L22.1807 32.2824C22.6699 32.8125 23.0141 33.4505 23.1952 34.1513L25.2786 42.4263C25.6681 43.9627 24.726 45.5261 23.168 45.9124C21.6101 46.2987 20.043 45.3643 19.6536 43.8189L17.6608 35.9033L11.2568 28.976C9.91622 27.5295 9.41804 25.5079 9.92528 23.6121L11.4561 17.9067H11.4651ZM6.22963 35.7596L8.49412 30.153C8.68434 30.4226 8.90173 30.6742 9.12818 30.9257L12.8148 34.915L11.5014 38.1675C11.284 38.7066 10.9579 39.2007 10.5412 39.614L4.95245 45.1577C3.8202 46.2808 1.98143 46.2808 0.849186 45.1577C-0.283062 44.0346 -0.283062 42.2107 0.849186 41.0876L6.22963 35.7596Z" fill="#4CAF50"/>
</svg>
