<svg width="24" height="32" viewBox="0 0 24 32" fill="none" xmlns="http://www.w3.org/2000/svg">
<path d="M24 32H0V0H24V32Z" stroke="#E5E7EB"/>
<g clip-path="url(#clip0_1_1318)">
<path d="M10.7016 24.9891L2.23125 17.0813C2.03437 16.8984 1.84688 16.7016 1.67344 16.5H5.75156C6.81094 16.5 7.76719 15.8625 8.175 14.8828L8.66719 13.7016L10.9781 18.8344C11.1562 19.2328 11.5453 19.4906 11.9813 19.4953C12.4172 19.5 12.8156 19.2609 13.0125 18.8719L15 14.8922L15.0797 15.0516C15.525 15.9422 16.4344 16.5047 17.4281 16.5047H22.3266C22.1531 16.7063 21.9656 16.9031 21.7687 17.0859L13.2984 24.9891C12.9469 25.3172 12.4828 25.5 12 25.5C11.5172 25.5 11.0531 25.3172 10.7016 24.9891ZM23.6109 14.25H17.4234C17.2828 14.25 17.1516 14.1703 17.0859 14.0438L15.9984 11.8734C15.8062 11.4938 15.4172 11.25 14.9906 11.25C14.5641 11.25 14.175 11.4891 13.9828 11.8734L12.0422 15.7547L9.65156 10.4156C9.46875 10.0078 9.05625 9.74532 8.61094 9.75469C8.16562 9.76407 7.7625 10.0313 7.58906 10.4484L6.09844 14.025C6.04219 14.1656 5.90156 14.2547 5.75156 14.2547H0.75C0.628125 14.2547 0.515625 14.2734 0.407812 14.3063C0.140625 13.5563 0 12.7594 0 11.9484V11.6766C0 8.40001 2.36719 5.60626 5.59688 5.06719C7.73438 4.71094 9.90938 5.40938 11.4375 6.93751L12 7.50001L12.5625 6.93751C14.0906 5.40938 16.2656 4.71094 18.4031 5.06719C21.6328 5.60626 24 8.40001 24 11.6766V11.9484C24 12.7406 23.8688 13.5188 23.6109 14.25Z" fill="white"/>
</g>
<defs>
<clipPath id="clip0_1_1318">
<path d="M0 3H24V27H0V3Z" fill="white"/>
</clipPath>
</defs>
</svg>
