<svg width="20" height="24" viewBox="0 0 20 24" fill="none" xmlns="http://www.w3.org/2000/svg">
<path d="M20 24H0V0H20V24Z" stroke="#E5E7EB"/>
<g clip-path="url(#clip0_1_522)">
<path d="M3 8C3 6.93913 3.42143 5.92172 4.17157 5.17157C4.92172 4.42143 5.93913 4 7 4C8.06087 4 9.07828 4.42143 9.82843 5.17157C10.5786 5.92172 11 6.93913 11 8C11 9.06087 10.5786 10.0783 9.82843 10.8284C9.07828 11.5786 8.06087 12 7 12C5.93913 12 4.92172 11.5786 4.17157 10.8284C3.42143 10.0783 3 9.06087 3 8ZM0 19.0719C0 15.9937 2.49375 13.5 5.57188 13.5H8.42813C11.5063 13.5 14 15.9937 14 19.0719C14 19.5844 13.5844 20 13.0719 20H0.928125C0.415625 20 0 19.5844 0 19.0719ZM19.0406 20H14.7312C14.9 19.7063 15 19.3656 15 19V18.75C15 16.8531 14.1531 15.15 12.8188 14.0063C12.8938 14.0031 12.9656 14 13.0406 14H14.9594C17.7437 14 20 16.2562 20 19.0406C20 19.5719 19.5688 20 19.0406 20ZM13.5 12C12.5312 12 11.6562 11.6063 11.0219 10.9719C11.6375 10.1406 12 9.1125 12 8C12 7.1625 11.7938 6.37188 11.4281 5.67813C12.0094 5.25312 12.725 5 13.5 5C15.4344 5 17 6.56562 17 8.5C17 10.4344 15.4344 12 13.5 12Z" fill="#4CAF50"/>
</g>
<defs>
<clipPath id="clip0_1_522">
<path d="M0 4H20V20H0V4Z" fill="white"/>
</clipPath>
</defs>
</svg>
