<svg width="20" height="24" viewBox="0 0 20 24" fill="none" xmlns="http://www.w3.org/2000/svg">
<path d="M20 24H0V0H20V24Z" stroke="#E5E7EB"/>
<path d="M20 19H0V3H20V19Z" stroke="#E5E7EB"/>
<path d="M9.75 4C9.33438 4 9 4.33437 9 4.75C9 5.16562 9.33438 5.5 9.75 5.5H10.5531L11.6344 7.5H6.96562L6.10938 6.3125C5.96875 6.11562 5.74062 6 5.5 6H3.75C3.33437 6 3 6.33437 3 6.75C3 7.16563 3.33437 7.5 3.75 7.5H5.11562L5.80625 8.45937L4.975 10.1188C4.6625 10.0406 4.33437 10 4 10C1.79063 10 0 11.7906 0 14C0 16.2094 1.79063 18 4 18C6.04063 18 7.72188 16.4719 7.96875 14.5H9.5C9.76562 14.5 10.0094 14.3594 10.1469 14.1313L12.7969 9.64687L13.475 10.9C12.575 11.6344 12 12.75 12 14C12 16.2094 13.7906 18 16 18C18.2094 18 20 16.2094 20 14C20 11.7906 18.2094 10 16 10C15.5781 10 15.1719 10.0656 14.7906 10.1875L11.7312 4.525C11.5562 4.2 11.2188 4 10.85 4H9.75ZM14.3313 12.4906L15.3406 14.3562C15.5375 14.7219 15.9938 14.8562 16.3563 14.6594C16.7188 14.4625 16.8562 14.0063 16.6594 13.6438L15.65 11.7781C15.7625 11.7594 15.8813 11.75 16 11.75C17.2437 11.75 18.25 12.7563 18.25 14C18.25 15.2437 17.2437 16.25 16 16.25C14.7563 16.25 13.75 15.2437 13.75 14C13.75 13.4187 13.9688 12.8906 14.3313 12.4906ZM4.1625 14.5H6.19375C5.96562 15.5031 5.06875 16.25 4 16.25C2.75625 16.25 1.75 15.2437 1.75 14C1.75 12.7563 2.75625 11.75 4 11.75C4.05312 11.75 4.10625 11.7531 4.15938 11.7563L3.40313 13.2719C3.12188 13.8375 3.53125 14.5031 4.1625 14.5031V14.5ZM5.21562 13L6.8 9.83437L9.07812 12.9969L9.075 13H5.2125H5.21562ZM8.04688 9H11.4344L9.90625 11.5875L8.04375 9H8.04688Z" fill="white"/>
</svg>
