<svg width="15" height="28" viewBox="0 0 15 28" fill="none" xmlns="http://www.w3.org/2000/svg">
<path d="M15 28H0V0H15V28Z" stroke="#E5E7EB"/>
<g clip-path="url(#clip0_1_2073)">
<path d="M4.35176 15.0586C4.21504 15.8086 3.67207 19.3047 3.51191 20.293C3.50019 20.3633 3.47285 20.3906 3.39473 20.3906H0.480663C0.183788 20.3906 -0.0310559 20.1328 0.00800664 19.8477L2.29707 5.32032C2.35566 4.94532 2.6916 4.66016 3.07832 4.66016C9.02754 4.66016 9.52754 4.51563 11.0471 5.10548C13.3947 6.01563 13.6096 8.21095 12.7658 10.5859C11.926 13.0313 9.93379 14.082 7.29316 14.1133C5.59785 14.1406 4.57832 13.8399 4.35176 15.0586ZM13.9494 9.43751C13.8791 9.38673 13.8518 9.3672 13.8322 9.48829C13.7541 9.9336 13.633 10.3672 13.4885 10.8008C11.9299 15.2461 7.60957 14.8594 5.50019 14.8594C5.26191 14.8594 5.10566 14.9883 5.07441 15.2266C4.1916 20.7109 4.01582 21.8555 4.01582 21.8555C3.97676 22.1328 4.15254 22.3594 4.42988 22.3594H6.91035C7.24629 22.3594 7.52363 22.1133 7.59004 21.7774C7.61738 21.5664 7.54707 22.0156 8.15254 18.2109C8.33222 17.3516 8.71113 17.4414 9.29707 17.4414C12.0705 17.4414 14.2346 16.3164 14.8791 13.0547C15.133 11.6953 15.0588 10.2656 13.9494 9.43751Z" fill="white"/>
</g>
<defs>
<clipPath id="clip0_1_2073">
<path d="M0 3.5H15V23.5H0V3.5Z" fill="white"/>
</clipPath>
</defs>
</svg>
