<svg width="11" height="12" viewBox="0 0 11 12" fill="none" xmlns="http://www.w3.org/2000/svg">
<g clip-path="url(#clip0_1_1351)">
<g clip-path="url(#clip1_1_1351)">
<path d="M3.375 3.375V4.5H7.125V3.375C7.125 2.33906 6.28594 1.5 5.25 1.5C4.21406 1.5 3.375 2.33906 3.375 3.375ZM1.875 4.5V3.375C1.875 1.51172 3.38672 0 5.25 0C7.11328 0 8.625 1.51172 8.625 3.375V4.5H9C9.82734 4.5 10.5 5.17266 10.5 6V10.5C10.5 11.3273 9.82734 12 9 12H1.5C0.672656 12 0 11.3273 0 10.5V6C0 5.17266 0.672656 4.5 1.5 4.5H1.875Z" fill="#6B7280"/>
</g>
</g>
<defs>
<clipPath id="clip0_1_1351">
<rect width="10.5" height="12" fill="white"/>
</clipPath>
<clipPath id="clip1_1_1351">
<path d="M0 0H10.5V12H0V0Z" fill="white"/>
</clipPath>
</defs>
</svg>
