<svg width="24" height="24" viewBox="0 0 24 24" fill="none" xmlns="http://www.w3.org/2000/svg">
<path d="M14.579 8.921C14.9084 9.251 15.1824 9.689 15.401 10.235C15.6197 10.781 15.7084 11.315 15.667 11.837C15.667 11.9717 15.6204 12.0847 15.527 12.176C15.4337 12.268 15.3197 12.314 15.185 12.314C15.0504 12.314 14.937 12.268 14.845 12.176C14.753 12.084 14.7074 11.9707 14.708 11.836C14.7527 11.39 14.7054 10.9733 14.566 10.586C14.426 10.1993 14.2144 9.86433 13.931 9.581C13.6477 9.29767 13.306 9.08433 12.906 8.941C12.506 8.79767 12.0874 8.75433 11.65 8.811C11.5154 8.82433 11.3957 8.78733 11.291 8.7C11.1864 8.61267 11.1277 8.50167 11.115 8.367C11.1024 8.23233 11.1387 8.113 11.224 8.009C11.3094 7.905 11.4194 7.84633 11.554 7.833C12.0847 7.76633 12.6294 7.839 13.188 8.051C13.7467 8.263 14.21 8.553 14.578 8.921M12 6C11.6067 6 11.2184 6.022 10.835 6.066C10.451 6.11067 10.071 6.179 9.69503 6.271C9.55236 6.30833 9.42303 6.28933 9.30703 6.214C9.19103 6.13867 9.11069 6.03767 9.06603 5.911C9.02069 5.773 9.03369 5.64633 9.10503 5.531C9.17636 5.41567 9.28103 5.33933 9.41903 5.302C9.84103 5.19333 10.267 5.11567 10.697 5.069C11.127 5.023 11.5614 5 12 5C14.014 5 15.874 5.51667 17.58 6.55C19.286 7.58333 20.6067 8.98867 21.542 10.766C21.6087 10.886 21.6554 11.004 21.682 11.12C21.7087 11.236 21.7224 11.3627 21.723 11.5C21.7237 11.6373 21.7114 11.764 21.686 11.88C21.6607 11.996 21.6147 12.114 21.548 12.234C21.2347 12.85 20.8607 13.4207 20.426 13.946C19.9914 14.4713 19.5134 14.9567 18.992 15.402C18.882 15.4953 18.761 15.5353 18.629 15.522C18.497 15.5073 18.386 15.441 18.296 15.323C18.2067 15.205 18.1714 15.0823 18.19 14.955C18.208 14.827 18.2724 14.7163 18.383 14.623C18.8857 14.1883 19.342 13.7107 19.752 13.19C20.162 12.67 20.5114 12.1067 20.8 11.5C19.9667 9.81667 18.7624 8.47933 17.187 7.488C15.6117 6.49667 13.8827 6.00067 12 6ZM12 18C10.0227 18 8.20536 17.4793 6.54803 16.438C4.89069 15.3967 3.56069 14.0207 2.55803 12.31C2.47469 12.1893 2.41536 12.0593 2.38003 11.92C2.34469 11.7807 2.32703 11.6407 2.32703 11.5C2.32703 11.3593 2.34369 11.2203 2.37703 11.083C2.41036 10.9457 2.46869 10.815 2.55203 10.691C2.96203 9.99833 3.41669 9.34167 3.91603 8.721C4.41603 8.099 4.99403 7.551 5.65003 7.077L3.21003 4.631C3.11669 4.533 3.06769 4.41733 3.06303 4.284C3.05836 4.15 3.10936 4.02967 3.21603 3.923C3.32203 3.81633 3.43969 3.763 3.56903 3.763C3.69836 3.763 3.81636 3.81633 3.92303 3.923L20.077 20.077C20.1704 20.1703 20.2214 20.284 20.23 20.418C20.2387 20.552 20.1877 20.674 20.077 20.784C19.9704 20.8907 19.8524 20.944 19.723 20.944C19.5937 20.944 19.4757 20.8907 19.369 20.784L15.831 17.258C15.235 17.5313 14.6144 17.7233 13.969 17.834C13.3244 17.9447 12.668 18 12 18ZM6.35803 7.785C5.66936 8.25633 5.05769 8.805 4.52303 9.431C3.98836 10.0563 3.54736 10.746 3.20003 11.5C4.03336 13.1833 5.23769 14.521 6.81303 15.513C8.38836 16.505 10.1174 17.0007 12 17C12.526 17 13.0467 16.9633 13.562 16.89C14.0774 16.816 14.5787 16.6833 15.066 16.492L13.434 14.85C13.2127 14.9767 12.9834 15.059 12.746 15.097C12.5087 15.135 12.26 15.154 12 15.154C10.9807 15.154 10.117 14.7997 9.40903 14.091C8.70103 13.3823 8.34669 12.5187 8.34603 11.5C8.34603 11.24 8.36836 10.9913 8.41303 10.754C8.45769 10.5167 8.53669 10.2873 8.65003 10.066L6.35803 7.785Z" fill="black"/>
</svg>
