<svg width="15" height="28" viewBox="0 0 15 28" fill="none" xmlns="http://www.w3.org/2000/svg">
<path d="M15 28H0V0H15V28Z" stroke="#E5E7EB"/>
<g clip-path="url(#clip0_1_2067)">
<path d="M12.4492 13.9961C12.4414 12.5625 13.0898 11.4805 14.4023 10.6836C13.668 9.63281 12.5586 9.05469 11.0938 8.94141C9.70703 8.83203 8.19141 9.75 7.63672 9.75C7.05078 9.75 5.70703 8.98047 4.65234 8.98047C2.47266 9.01562 0.15625 10.7188 0.15625 14.1836C0.15625 15.207 0.34375 16.2643 0.71875 17.3555C1.21875 18.7891 3.02344 22.3047 4.90625 22.2461C5.89062 22.2227 6.58594 21.5469 7.86719 21.5469C9.10938 21.5469 9.75391 22.2461 10.8516 22.2461C12.75 22.2188 14.3828 19.0234 14.8594 17.5859C12.3125 16.3867 12.4492 14.0703 12.4492 13.9961ZM10.2383 7.58203C11.3047 6.31641 11.207 5.16406 11.1758 4.75C10.2344 4.80469 9.14453 5.39063 8.52344 6.11328C7.83984 6.88672 7.4375 7.84375 7.52344 8.92188C8.54297 9 9.47266 8.47656 10.2383 7.58203Z" fill="white"/>
</g>
<defs>
<clipPath id="clip0_1_2067">
<path d="M0 3.5H15V23.5H0V3.5Z" fill="white"/>
</clipPath>
</defs>
</svg>
