<svg width="20" height="28" viewBox="0 0 20 28" fill="none" xmlns="http://www.w3.org/2000/svg">
<path d="M19.0625 28H0V0H19.0625V28Z" stroke="#E5E7EB"/>
<g clip-path="url(#clip0_1_2079)">
<path d="M19.0625 13.7266C19.0625 19.2539 15.2773 23.1875 9.6875 23.1875C4.32812 23.1875 0 18.8594 0 13.5C0 8.14062 4.32812 3.8125 9.6875 3.8125C12.2969 3.8125 14.4922 4.76953 16.1836 6.34766L13.5469 8.88281C10.0977 5.55469 3.68359 8.05469 3.68359 13.5C3.68359 16.8789 6.38281 19.6172 9.6875 19.6172C13.5234 19.6172 14.9609 16.8672 15.1875 15.4414H9.6875V12.1094H18.9102C19 12.6055 19.0625 13.082 19.0625 13.7266Z" fill="#4285F4"/>
</g>
<defs>
<clipPath id="clip0_1_2079">
<path d="M0 3.5H19.0625V23.5H0V3.5Z" fill="white"/>
</clipPath>
</defs>
</svg>
