<svg width="18" height="28" viewBox="0 0 18 28" fill="none" xmlns="http://www.w3.org/2000/svg">
<path d="M17.5 28H0V0H17.5V28Z" stroke="#E5E7EB"/>
<g clip-path="url(#clip0_1_1041)">
<path d="M12.5 5.375C12.5 4.87772 12.3025 4.40081 11.9508 4.04917C11.5992 3.69754 11.1223 3.5 10.625 3.5C10.1277 3.5 9.65081 3.69754 9.29917 4.04917C8.94754 4.40081 8.75 4.87772 8.75 5.375C8.75 5.87228 8.94754 6.34919 9.29917 6.70083C9.65081 7.05246 10.1277 7.25 10.625 7.25C11.1223 7.25 11.5992 7.05246 11.9508 6.70083C12.3025 6.34919 12.5 5.87228 12.5 5.375ZM4.91016 10.3555C5.29688 9.96875 5.82422 9.75 6.375 9.75C6.44922 9.75 6.52344 9.75391 6.59375 9.76172L5.375 13.4219C5.01172 14.5156 5.44141 15.7188 6.42188 16.332L9.78906 18.4375L8.79688 21.9062C8.60547 22.5703 8.99219 23.2617 9.65625 23.4531C10.3203 23.6445 11.0117 23.2578 11.2031 22.5938L12.3242 18.6719C12.5547 17.8672 12.2227 17.0078 11.5156 16.5664L9.29688 15.1797L10.5039 11.9609L10.7031 12.4414C11.2891 13.8398 12.6523 14.75 14.168 14.75H15C15.6914 14.75 16.25 14.1914 16.25 13.5C16.25 12.8086 15.6914 12.25 15 12.25H14.168C13.6641 12.25 13.207 11.9453 13.0156 11.4805L12.7695 10.8945C12.1992 9.52344 11.0469 8.47656 9.625 8.03906L7.72266 7.45312C7.28906 7.32031 6.83594 7.25 6.37891 7.25C5.16797 7.25 4.00391 7.73047 3.14844 8.58984L2.24219 9.49219C1.75391 9.98047 1.75391 10.7734 2.24219 11.2617C2.73047 11.75 3.52344 11.75 4.01172 11.2617L4.91406 10.3594L4.91016 10.3555ZM3.5625 17.25H1.25C0.558594 17.25 0 17.8086 0 18.5C0 19.1914 0.558594 19.75 1.25 19.75H3.96875C4.71094 19.75 5.38281 19.3125 5.68359 18.6367L6.13281 17.625L5.76172 17.3906C5.07812 16.9648 4.57031 16.3438 4.28125 15.6367L3.5625 17.25Z" fill="#4CAF50"/>
</g>
<defs>
<clipPath id="clip0_1_1041">
<path d="M0 3.5H17.5V23.5H0V3.5Z" fill="white"/>
</clipPath>
</defs>
</svg>
